<?xml version="1.0" encoding="UTF-8" standalone="no"?>
<!DOCTYPE svg PUBLIC "-//W3C//DTD SVG 1.1//EN" "http://www.w3.org/Graphics/SVG/1.1/DTD/svg11.dtd">
<svg xmlns="http://www.w3.org/2000/svg" version="1.1" viewBox="0.00 0.00 500.00 500.00">
<g stroke-width="2.00" fill="none" stroke-linecap="butt">
<path stroke="#808080" vector-effect="non-scaling-stroke" d="
  M 249.88 148.78
  Q 250.11 149.31 249.85 149.73
  Q 249.60 150.15 248.83 150.24
  C 247.70 150.38 246.87 150.66 245.72 150.23
  Q 239.95 148.08 233.76 149.24
  Q 233.30 149.32 233.26 149.79
  Q 233.06 151.97 234.08 153.42
  C 238.33 159.45 247.70 159.60 254.08 157.34
  C 262.63 154.32 263.79 142.70 253.81 140.47
  Q 249.79 139.57 245.53 138.99
  A 1.18 1.18 0.0 0 1 244.74 137.11
  Q 245.33 136.34 246.77 136.74
  C 248.38 137.19 249.67 137.93 251.37 137.96
  Q 255.05 138.04 258.68 137.81
  A 0.97 0.97 0.0 0 0 259.59 136.79
  C 259.28 130.86 250.87 128.22 246.31 128.44
  C 242.93 128.60 239.99 129.13 237.34 131.10
  C 230.55 136.15 233.50 145.40 241.52 146.74
  Q 245.33 147.38 249.16 148.19
  Q 249.67 148.30 249.88 148.78"
/>
<path stroke="#808080" vector-effect="non-scaling-stroke" d="
  M 312.21 185.95
  L 322.62 159.42
  A 1.20 1.19 -59.0 0 0 322.29 158.08
  L 314.81 151.59
  A 1.71 1.71 0.0 0 0 312.84 151.41
  L 288.81 165.36
  Q 288.13 165.75 288.39 165.01
  L 296.88 140.96
  A 1.42 1.42 0.0 0 0 296.01 139.15
  L 288.52 136.54
  A 1.15 1.15 0.0 0 0 287.06 137.24
  L 284.19 145.31
  Q 284.12 145.51 283.92 145.44
  L 278.01 143.43
  A 0.35 0.35 0.0 0 1 277.79 142.99
  L 280.65 134.89
  A 1.07 1.07 0.0 0 0 279.99 133.53
  L 271.82 130.70
  A 0.77 0.77 0.0 0 0 270.85 131.17
  L 261.72 157.00
  A 1.25 1.24 19.4 0 0 262.49 158.60
  L 270.33 161.29
  A 0.97 0.97 0.0 0 0 271.56 160.70
  L 274.39 152.73
  Q 274.63 152.05 275.31 152.28
  L 280.43 154.06
  Q 281.06 154.28 280.84 154.91
  L 277.98 162.96
  A 0.94 0.94 0.0 0 0 278.49 164.14
  C 281.94 165.61 286.71 166.25 289.46 168.57
  Q 291.74 170.49 293.81 172.35
  A 1.75 1.75 0.0 0 0 295.88 172.56
  L 297.84 171.41
  Q 298.29 171.14 298.69 171.48
  L 304.85 176.79
  A 0.69 0.68 -57.9 0 1 305.03 177.59
  L 304.24 179.36
  A 2.16 2.15 32.4 0 0 304.81 181.88
  Q 306.87 183.64 308.89 185.34
  Q 310.49 186.67 311.40 188.71
  Q 313.04 192.36 315.06 195.46
  A 1.43 1.43 0.0 0 0 316.98 195.91
  Q 320.28 193.97 323.26 192.51
  Q 324.02 192.14 324.27 193.18
  Q 324.41 193.74 324.06 194.21
  L 319.28 200.57
  A 2.25 2.24 -40.8 0 0 319.10 202.98
  L 323.16 210.41
  A 0.94 0.93 -42.8 0 0 324.77 210.47
  L 330.25 201.99
  Q 330.58 201.48 331.14 201.71
  C 338.64 204.70 346.84 198.89 344.85 190.54
  C 343.52 184.98 339.63 179.27 336.82 174.25
  Q 336.29 173.31 335.34 173.83
  L 312.57 186.27
  Q 311.96 186.60 312.21 185.95"
/>
<path stroke="#808080" vector-effect="non-scaling-stroke" d="
  M 198.41 141.93
  L 208.16 167.21
  A 1.13 1.13 0.0 0 0 209.63 167.86
  L 222.37 162.94
  A 12.55 11.20 -21.1 0 0 230.05 147.98
  L 227.54 141.48
  A 12.55 11.20 -21.1 0 0 211.80 135.55
  L 199.06 140.47
  A 1.13 1.13 0.0 0 0 198.41 141.93"
/>
<path stroke="#808080" vector-effect="non-scaling-stroke" d="
  M 195.5678 154.7522
  A 11.55 11.55 0.0 0 0 179.2545 153.9258
  L 175.5595 157.2646
  A 11.55 11.55 0.0 0 0 174.7331 173.5778
  L 179.3322 178.6678
  A 11.55 11.55 0.0 0 0 195.6455 179.4942
  L 199.3405 176.1554
  A 11.55 11.55 0.0 0 0 200.1669 159.8422
  L 195.5678 154.7522"
/>
<path stroke="#808080" vector-effect="non-scaling-stroke" d="
  M 322.47 235.76
  A 72.43 72.43 0.0 0 0 250.04 163.33
  A 72.43 72.43 0.0 0 0 177.61 235.76
  A 72.43 72.43 0.0 0 0 250.04 308.19
  A 72.43 72.43 0.0 0 0 322.47 235.76"
/>
<path stroke="#808080" vector-effect="non-scaling-stroke" d="
  M 181.5134 197.8884
  A 11.62 11.62 0.0 0 0 177.2325 182.0226
  L 171.3549 178.6429
  A 11.62 11.62 0.0 0 0 155.4892 182.9238
  L 153.0466 187.1716
  A 11.62 11.62 0.0 0 0 157.3275 203.0374
  L 163.2051 206.4171
  A 11.62 11.62 0.0 0 0 179.0708 202.1362
  L 181.5134 197.8884"
/>
<path stroke="#808080" vector-effect="non-scaling-stroke" d="
  M 333.01 220.67
  A 0.58 0.58 0.0 0 1 333.59 220.00
  L 335.07 220.01
  A 0.58 0.58 0.0 0 1 335.64 220.50
  L 337.48 232.01
  A 0.58 0.58 0.0 0 0 338.14 232.49
  L 344.66 231.42
  A 0.58 0.58 0.0 0 0 345.14 230.76
  L 343.22 219.10
  A 0.58 0.58 0.0 0 1 343.72 218.43
  L 345.19 218.25
  A 0.58 0.58 0.0 0 1 345.83 218.73
  L 347.88 231.22
  A 0.58 0.58 0.0 0 0 348.54 231.70
  L 355.47 230.56
  A 0.58 0.58 0.0 0 0 355.95 229.90
  L 352.31 207.52
  A 0.58 0.58 0.0 0 0 351.65 207.04
  L 323.76 211.62
  A 0.58 0.58 0.0 0 0 323.28 212.28
  L 327.00 235.00
  A 0.58 0.58 0.0 0 0 327.66 235.48
  L 334.59 234.32
  A 0.58 0.58 0.0 0 0 335.07 233.65
  L 333.01 220.67"
/>
<path stroke="#808080" vector-effect="non-scaling-stroke" d="
  M 154.47 221.42
  A 0.73 0.73 0.0 0 1 153.69 222.03
  L 152.02 221.89
  A 0.73 0.73 0.0 0 1 151.36 221.05
  L 153.18 209.45
  A 0.73 0.73 0.0 0 0 152.58 208.61
  L 145.47 207.44
  A 0.73 0.73 0.0 0 0 144.63 208.05
  L 141.22 229.80
  A 0.73 0.73 0.0 0 0 141.83 230.63
  L 169.42 234.95
  A 0.73 0.73 0.0 0 0 170.25 234.34
  L 171.64 225.60
  A 0.73 0.73 0.0 0 0 171.04 224.77
  L 163.56 223.61
  A 0.73 0.73 0.0 0 1 162.95 222.78
  L 164.63 212.07
  A 0.73 0.73 0.0 0 0 164.02 211.23
  L 156.97 210.08
  A 0.73 0.73 0.0 0 0 156.13 210.69
  L 154.47 221.42"
/>
<path stroke="#808080" vector-effect="non-scaling-stroke" d="
  M 309.16 168.92
  L 311.75 162.82
  Q 312.11 161.96 311.33 162.47
  L 305.89 166.03
  Q 305.33 166.39 305.84 166.83
  L 308.45 169.08
  Q 308.92 169.48 309.16 168.92"
/>
<path stroke="#808080" vector-effect="non-scaling-stroke" d="
  M 334.19 186.43
  L 330.98 188.15
  A 0.42 0.42 0.0 0 0 330.81 188.72
  L 331.96 190.86
  A 2.12 2.01 61.8 0 0 334.73 191.77
  L 335.13 191.56
  A 2.12 2.01 61.8 0 0 335.90 188.74
  L 334.76 186.61
  A 0.42 0.42 0.0 0 0 334.19 186.43"
/>
<path stroke="#808080" vector-effect="non-scaling-stroke" d="
  M 210.94 145.19
  L 215.19 156.31
  A 0.60 0.60 0.0 0 0 215.96 156.66
  L 217.91 155.91
  A 3.21 3.08 -20.9 0 0 219.81 151.89
  L 217.34 145.41
  A 3.21 3.08 -20.9 0 0 213.24 143.67
  L 211.29 144.42
  A 0.60 0.60 0.0 0 0 210.94 145.19"
/>
<path stroke="#808080" vector-effect="non-scaling-stroke" d="
  M 187.1431 161.7058
  A 2.95 2.95 0.0 0 0 182.9777 161.4729
  L 182.7242 161.6995
  A 2.95 2.95 0.0 0 0 182.4913 165.8650
  L 187.7569 171.7542
  A 2.95 2.95 0.0 0 0 191.9223 171.9871
  L 192.1758 171.7605
  A 2.95 2.95 0.0 0 0 192.4087 167.5950
  L 187.1431 161.7058"
/>
<path stroke="#808080" vector-effect="non-scaling-stroke" d="
  M 318.22 235.74
  A 68.17 68.17 0.0 0 0 250.05 167.57
  A 68.17 68.17 0.0 0 0 181.88 235.74
  A 68.17 68.17 0.0 0 0 250.05 303.91
  A 68.17 68.17 0.0 0 0 318.22 235.74"
/>
<path stroke="#808080" vector-effect="non-scaling-stroke" d="
  M 249.78 173.55
  A 0.32 0.32 0.0 0 0 249.86 173.11
  Q 249.28 172.24 248.31 172.21
  A 0.89 0.89 0.0 0 0 247.41 172.94
  Q 247.25 173.84 248.04 174.39
  A 0.53 0.53 0.0 0 0 248.67 174.38
  L 249.78 173.55"
/>
<path stroke="#808080" vector-effect="non-scaling-stroke" d="
  M 255.01 172.74
  Q 254.79 172.40 254.59 172.37
  A 1.26 1.00 -11.2 0 0 253.22 173.98
  Q 254.14 175.07 255.39 174.68
  A 0.75 0.74 -32.3 0 0 255.68 173.42
  L 255.11 172.89
  Q 255.11 172.89 255.01 172.74"
/>
<path stroke="#808080" vector-effect="non-scaling-stroke" d="
  M 243.24 172.82
  Q 242.80 172.96 242.24 172.94
  A 1.01 1.01 0.0 0 0 242.06 174.94
  Q 242.73 175.04 243.40 174.95
  A 0.66 0.65 -5.6 0 0 243.97 174.26
  L 243.90 173.26
  Q 243.86 172.61 243.24 172.82"
/>
<path stroke="#808080" vector-effect="non-scaling-stroke" d="
  M 261.32 174.17
  A 1.16 1.16 0.0 0 0 260.16 173.01
  A 1.16 1.16 0.0 0 0 259.00 174.17
  A 1.16 1.16 0.0 0 0 260.16 175.33
  A 1.16 1.16 0.0 0 0 261.32 174.17"
/>
<path stroke="#808080" vector-effect="non-scaling-stroke" d="
  M 238.11 174.78
  A 1.15 1.15 0.0 0 0 236.96 173.63
  A 1.15 1.15 0.0 0 0 235.81 174.78
  A 1.15 1.15 0.0 0 0 236.96 175.93
  A 1.15 1.15 0.0 0 0 238.11 174.78"
/>
<path stroke="#808080" vector-effect="non-scaling-stroke" d="
  M 266.8823 174.6798
  A 1.23 1.05 -37.0 0 0 265.2681 174.5814
  A 1.23 1.05 -37.0 0 0 264.9177 176.1602
  A 1.23 1.05 -37.0 0 0 266.5319 176.2586
  A 1.23 1.05 -37.0 0 0 266.8823 174.6798"
/>
<path stroke="#808080" vector-effect="non-scaling-stroke" d="
  M 232.16 175.28
  A 0.45 0.43 -11.0 0 0 231.73 175.00
  Q 230.69 175.05 230.26 176.02
  Q 229.90 176.82 230.71 177.14
  Q 232.04 177.67 232.36 176.73
  Q 232.53 176.21 232.16 175.28"
/>
<path stroke="#808080" vector-effect="non-scaling-stroke" d="
  M 272.5912 176.4481
  A 1.22 1.09 -32.3 0 0 270.9776 176.1787
  A 1.22 1.09 -32.3 0 0 270.5288 177.7519
  A 1.22 1.09 -32.3 0 0 272.1424 178.0213
  A 1.22 1.09 -32.3 0 0 272.5912 176.4481"
/>
<path stroke="#808080" vector-effect="non-scaling-stroke" d="
  M 227.01 178.22
  A 1.16 1.16 0.0 0 0 225.85 177.06
  A 1.16 1.16 0.0 0 0 224.69 178.22
  A 1.16 1.16 0.0 0 0 225.85 179.38
  A 1.16 1.16 0.0 0 0 227.01 178.22"
/>
<path stroke="#808080" vector-effect="non-scaling-stroke" d="
  M 278.04 179.47
  A 1.15 1.15 0.0 0 0 276.89 178.32
  A 1.15 1.15 0.0 0 0 275.74 179.47
  A 1.15 1.15 0.0 0 0 276.89 180.62
  A 1.15 1.15 0.0 0 0 278.04 179.47"
/>
<path stroke="#808080" vector-effect="non-scaling-stroke" d="
  M 221.66 180.81
  A 1.12 1.12 0.0 0 0 220.54 179.69
  A 1.12 1.12 0.0 0 0 219.42 180.81
  A 1.12 1.12 0.0 0 0 220.54 181.93
  A 1.12 1.12 0.0 0 0 221.66 180.81"
/>
<path stroke="#808080" vector-effect="non-scaling-stroke" d="
  M 282.7843 183.1065
  A 1.19 1.09 51.9 0 0 282.9078 181.4974
  A 1.19 1.09 51.9 0 0 281.3157 181.2335
  A 1.19 1.09 51.9 0 0 281.1922 182.8426
  A 1.19 1.09 51.9 0 0 282.7843 183.1065"
/>
<path stroke="#808080" vector-effect="non-scaling-stroke" d="
  M 216.75 183.76
  A 1.21 1.21 0.0 0 0 215.54 182.55
  A 1.21 1.21 0.0 0 0 214.33 183.76
  A 1.21 1.21 0.0 0 0 215.54 184.97
  A 1.21 1.21 0.0 0 0 216.75 183.76"
/>
<path stroke="#808080" vector-effect="non-scaling-stroke" d="
  M 263.82 218.51
  L 263.83 240.23
  A 0.62 0.61 -6.5 0 1 263.35 240.83
  Q 257.84 242.07 255.47 246.36
  Q 253.97 249.05 253.97 255.37
  Q 253.97 266.75 254.10 278.68
  A 3.33 3.33 0.0 0 0 257.08 281.96
  L 258.05 282.06
  A 3.65 3.65 0.0 0 0 262.07 278.45
  L 262.15 263.99
  A 0.81 0.81 0.0 0 1 263.00 263.18
  L 263.28 263.20
  Q 264.36 263.26 264.38 264.34
  Q 264.52 271.80 264.75 277.99
  Q 264.87 281.32 267.50 281.96
  C 271.32 282.90 272.45 279.67 272.49 276.46
  Q 272.56 270.41 272.58 263.93
  A 0.87 0.86 0.7 0 1 273.47 263.07
  L 273.88 263.08
  A 0.91 0.91 0.0 0 1 274.77 263.96
  Q 275.02 270.95 274.86 276.25
  C 274.64 283.75 283.27 283.93 283.07 277.24
  Q 282.77 266.57 282.91 255.89
  C 283.01 248.03 281.78 242.70 273.71 240.87
  Q 273.21 240.76 273.21 240.25
  L 273.18 219.09
  Q 273.18 218.23 274.03 218.11
  Q 276.47 217.77 276.48 216.50
  Q 276.64 204.00 276.63 191.50
  C 276.62 186.81 274.50 183.08 269.56 182.86
  C 262.83 182.55 260.35 185.65 260.36 192.15
  Q 260.39 204.22 260.40 216.63
  A 1.16 1.16 0.0 0 0 261.22 217.74
  Q 262.24 218.06 263.28 218.00
  Q 263.82 217.97 263.82 218.51"
/>
<path stroke="#808080" vector-effect="non-scaling-stroke" d="
  M 233.94 246.47
  L 233.93 224.22
  Q 233.93 223.68 234.40 223.43
  C 244.27 218.22 246.54 207.84 244.86 197.96
  C 242.15 182.06 223.14 176.35 215.63 192.68
  C 210.68 203.45 213.31 217.57 224.12 223.45
  Q 224.57 223.70 224.57 224.22
  L 224.56 246.40
  Q 224.56 246.99 223.97 246.99
  L 222.45 247.00
  A 1.31 1.30 -0.2 0 0 221.15 248.30
  Q 221.12 259.63 221.14 270.16
  C 221.15 274.81 220.98 278.78 224.58 280.92
  C 230.98 284.74 237.23 280.58 237.33 273.42
  Q 237.49 260.82 237.34 248.34
  A 1.36 1.36 0.0 0 0 235.98 247.00
  L 234.47 247.01
  Q 233.94 247.01 233.94 246.47"
/>
<path stroke="#808080" vector-effect="non-scaling-stroke" d="
  M 288.03 185.33
  A 1.13 1.13 0.0 0 0 286.90 184.20
  A 1.13 1.13 0.0 0 0 285.77 185.33
  A 1.13 1.13 0.0 0 0 286.90 186.46
  A 1.13 1.13 0.0 0 0 288.03 185.33"
/>
<path stroke="#808080" vector-effect="non-scaling-stroke" d="
  M 212.08 187.21
  A 1.19 1.19 0.0 0 0 210.89 186.02
  A 1.19 1.19 0.0 0 0 209.70 187.21
  A 1.19 1.19 0.0 0 0 210.89 188.40
  A 1.19 1.19 0.0 0 0 212.08 187.21"
/>
<path stroke="#808080" vector-effect="non-scaling-stroke" d="
  M 292.66 189.07
  A 1.15 1.15 0.0 0 0 291.51 187.92
  A 1.15 1.15 0.0 0 0 290.36 189.07
  A 1.15 1.15 0.0 0 0 291.51 190.22
  A 1.15 1.15 0.0 0 0 292.66 189.07"
/>
<path stroke="#808080" vector-effect="non-scaling-stroke" d="
  M 207.71 191.10
  A 1.15 1.15 0.0 0 0 206.56 189.95
  A 1.15 1.15 0.0 0 0 205.41 191.10
  A 1.15 1.15 0.0 0 0 206.56 192.25
  A 1.15 1.15 0.0 0 0 207.71 191.10"
/>
<path stroke="#808080" vector-effect="non-scaling-stroke" d="
  M 296.81 193.17
  A 1.20 1.20 0.0 0 0 295.61 191.97
  A 1.20 1.20 0.0 0 0 294.41 193.17
  A 1.20 1.20 0.0 0 0 295.61 194.37
  A 1.20 1.20 0.0 0 0 296.81 193.17"
/>
<path stroke="#808080" vector-effect="non-scaling-stroke" d="
  M 203.69 195.40
  A 1.16 1.16 0.0 0 0 202.53 194.24
  A 1.16 1.16 0.0 0 0 201.37 195.40
  A 1.16 1.16 0.0 0 0 202.53 196.56
  A 1.16 1.16 0.0 0 0 203.69 195.40"
/>
<path stroke="#808080" vector-effect="non-scaling-stroke" d="
  M 300.49 197.67
  A 1.12 1.12 0.0 0 0 299.37 196.55
  A 1.12 1.12 0.0 0 0 298.25 197.67
  A 1.12 1.12 0.0 0 0 299.37 198.79
  A 1.12 1.12 0.0 0 0 300.49 197.67"
/>
<path stroke="#808080" vector-effect="non-scaling-stroke" d="
  M 198.4087 201.2003
  A 1.31 1.12 112.5 0 0 199.9447 200.4186
  A 1.31 1.12 112.5 0 0 199.4113 198.7797
  A 1.31 1.12 112.5 0 0 197.8753 199.5614
  A 1.31 1.12 112.5 0 0 198.4087 201.2003"
/>
<path stroke="#808080" vector-effect="non-scaling-stroke" d="
  M 303.91 202.40
  A 1.11 1.11 0.0 0 0 302.80 201.29
  A 1.11 1.11 0.0 0 0 301.69 202.40
  A 1.11 1.11 0.0 0 0 302.80 203.51
  A 1.11 1.11 0.0 0 0 303.91 202.40"
/>
<path stroke="#808080" vector-effect="non-scaling-stroke" d="
  M 196.98 204.97
  A 1.14 1.14 0.0 0 0 195.84 203.83
  A 1.14 1.14 0.0 0 0 194.70 204.97
  A 1.14 1.14 0.0 0 0 195.84 206.11
  A 1.14 1.14 0.0 0 0 196.98 204.97"
/>
<path stroke="#808080" vector-effect="non-scaling-stroke" d="
  M 305.57 208.65
  Q 307.16 208.28 306.62 206.93
  A 0.96 0.96 0.0 0 0 304.94 206.74
  L 304.61 207.23
  A 0.92 0.92 0.0 0 0 305.57 208.65"
/>
<path stroke="#808080" vector-effect="non-scaling-stroke" d="
  M 194.39 210.16
  A 1.16 1.16 0.0 0 0 193.23 209.00
  A 1.16 1.16 0.0 0 0 192.07 210.16
  A 1.16 1.16 0.0 0 0 193.23 211.32
  A 1.16 1.16 0.0 0 0 194.39 210.16"
/>
<path stroke="#808080" vector-effect="non-scaling-stroke" d="
  M 309.0327 213.6194
  A 1.22 1.07 37.9 0 0 308.7273 212.0257
  A 1.22 1.07 37.9 0 0 307.1073 212.1206
  A 1.22 1.07 37.9 0 0 307.4127 213.7143
  A 1.22 1.07 37.9 0 0 309.0327 213.6194"
/>
<path stroke="#808080" vector-effect="non-scaling-stroke" d="
  M 192.0826 215.0286
  A 1.19 1.08 -29.8 0 0 190.5133 214.6828
  A 1.19 1.08 -29.8 0 0 190.0174 216.2114
  A 1.19 1.08 -29.8 0 0 191.5867 216.5572
  A 1.19 1.08 -29.8 0 0 192.0826 215.0286"
/>
<path stroke="#808080" vector-effect="non-scaling-stroke" d="
  M 309.29 219.26
  L 310.50 219.34
  A 0.82 0.82 0.0 0 0 311.25 218.08
  Q 310.34 216.63 309.35 217.35
  Q 309.08 217.55 308.97 217.93
  Q 308.80 218.54 308.99 219.04
  A 0.36 0.35 -7.9 0 0 309.29 219.26"
/>
<path stroke="#808080" vector-effect="non-scaling-stroke" d="
  M 188.8559 222.3243
  A 1.25 1.03 118.9 0 0 190.3617 221.7278
  A 1.25 1.03 118.9 0 0 190.0641 220.1357
  A 1.25 1.03 118.9 0 0 188.5583 220.7322
  A 1.25 1.03 118.9 0 0 188.8559 222.3243"
/>
<path stroke="#808080" vector-effect="non-scaling-stroke" d="
  M 311.33 222.77
  A 0.97 0.97 0.0 0 0 310.28 223.45
  Q 309.89 224.67 311.03 225.13
  A 0.92 0.92 0.0 0 0 312.27 224.49
  Q 312.64 222.94 311.33 222.77"
/>
<path stroke="#808080" vector-effect="non-scaling-stroke" d="
  M 189.19 226.33
  Q 188.83 225.72 188.15 225.92
  Q 187.62 226.07 187.24 226.64
  A 1.14 1.14 0.0 0 0 188.98 228.10
  Q 189.79 227.32 189.19 226.33"
/>
<path stroke="#808080" vector-effect="non-scaling-stroke" d="
  M 312.17 228.56
  Q 310.95 228.81 310.95 230.01
  A 0.81 0.80 -81.8 0 0 311.52 230.78
  Q 312.13 230.96 312.72 230.81
  Q 313.26 230.67 313.24 230.11
  Q 313.22 229.54 313.00 229.01
  Q 312.77 228.43 312.17 228.56"
/>
<path stroke="#808080" vector-effect="non-scaling-stroke" d="
  M 187.9271 234.0277
  A 1.30 1.11 86.6 0 0 188.9580 232.6642
  A 1.30 1.11 86.6 0 0 187.7729 231.4323
  A 1.30 1.11 86.6 0 0 186.7420 232.7958
  A 1.30 1.11 86.6 0 0 187.9271 234.0277"
/>
<path stroke="#808080" vector-effect="non-scaling-stroke" d="
  M 313.54 235.61
  A 1.17 1.17 0.0 0 0 312.37 234.44
  A 1.17 1.17 0.0 0 0 311.20 235.61
  A 1.17 1.17 0.0 0 0 312.37 236.78
  A 1.17 1.17 0.0 0 0 313.54 235.61"
/>
<path stroke="#808080" vector-effect="non-scaling-stroke" d="
  M 189.00 238.71
  A 1.14 1.14 0.0 0 0 187.86 237.57
  A 1.14 1.14 0.0 0 0 186.72 238.71
  A 1.14 1.14 0.0 0 0 187.86 239.85
  A 1.14 1.14 0.0 0 0 189.00 238.71"
/>
<path stroke="#808080" vector-effect="non-scaling-stroke" d="
  M 312.9859 242.4179
  A 1.18 1.07 40.6 0 0 312.7863 240.8376
  A 1.18 1.07 40.6 0 0 311.1941 240.8821
  A 1.18 1.07 40.6 0 0 311.3937 242.4624
  A 1.18 1.07 40.6 0 0 312.9859 242.4179"
/>
<path stroke="#808080" vector-effect="non-scaling-stroke" d="
  M 187.9517 245.7796
  A 1.30 1.08 106.0 0 0 189.3482 244.8277
  A 1.30 1.08 106.0 0 0 188.6683 243.2804
  A 1.30 1.08 106.0 0 0 187.2718 244.2323
  A 1.30 1.08 106.0 0 0 187.9517 245.7796"
/>
<path stroke="#808080" vector-effect="non-scaling-stroke" d="
  M 312.41 247.44
  A 1.12 1.12 0.0 0 0 311.29 246.32
  A 1.12 1.12 0.0 0 0 310.17 247.44
  A 1.12 1.12 0.0 0 0 311.29 248.56
  A 1.12 1.12 0.0 0 0 312.41 247.44"
/>
<path stroke="#808080" vector-effect="non-scaling-stroke" d="
  M 190.58 250.16
  A 1.14 1.14 0.0 0 0 189.44 249.02
  A 1.14 1.14 0.0 0 0 188.30 250.16
  A 1.14 1.14 0.0 0 0 189.44 251.30
  A 1.14 1.14 0.0 0 0 190.58 250.16"
/>
<path stroke="#808080" vector-effect="non-scaling-stroke" d="
  M 310.01 254.11
  Q 310.27 254.08 310.53 254.01
  Q 310.97 253.88 311.00 253.42
  Q 311.04 252.77 310.73 252.21
  A 0.87 0.87 0.0 0 0 309.26 252.14
  Q 308.80 252.82 308.92 253.60
  Q 308.99 254.05 309.45 254.10
  Q 309.74 254.14 310.01 254.11"
/>
<path stroke="#808080" vector-effect="non-scaling-stroke" d="
  M 189.88 255.91
  Q 190.79 258.19 192.44 256.11
  A 0.95 0.95 0.0 0 0 191.59 254.58
  Q 190.65 254.68 190.15 255.03
  A 0.75 0.74 62.4 0 0 189.88 255.91"
/>
<path stroke="#808080" vector-effect="non-scaling-stroke" d="
  M 307.3628 259.6875
  A 1.25 1.01 123.9 0 0 308.8983 259.2133
  A 1.25 1.01 123.9 0 0 308.7572 257.6125
  A 1.25 1.01 123.9 0 0 307.2217 258.0867
  A 1.25 1.01 123.9 0 0 307.3628 259.6875"
/>
<path stroke="#808080" vector-effect="non-scaling-stroke" d="
  M 194.30 261.23
  A 1.12 1.12 0.0 0 0 193.18 260.11
  A 1.12 1.12 0.0 0 0 192.06 261.23
  A 1.12 1.12 0.0 0 0 193.18 262.35
  A 1.12 1.12 0.0 0 0 194.30 261.23"
/>
<path stroke="#808080" vector-effect="non-scaling-stroke" d="
  M 306.83 264.00
  A 1.16 1.16 0.0 0 0 305.67 262.84
  A 1.16 1.16 0.0 0 0 304.51 264.00
  A 1.16 1.16 0.0 0 0 305.67 265.16
  A 1.16 1.16 0.0 0 0 306.83 264.00"
/>
<path stroke="#808080" vector-effect="non-scaling-stroke" d="
  M 196.96 266.44
  A 1.14 1.14 0.0 0 0 195.82 265.30
  A 1.14 1.14 0.0 0 0 194.68 266.44
  A 1.14 1.14 0.0 0 0 195.82 267.58
  A 1.14 1.14 0.0 0 0 196.96 266.44"
/>
<path stroke="#808080" vector-effect="non-scaling-stroke" d="
  M 303.98 269.03
  A 1.20 1.20 0.0 0 0 302.78 267.83
  A 1.20 1.20 0.0 0 0 301.58 269.03
  A 1.20 1.20 0.0 0 0 302.78 270.23
  A 1.20 1.20 0.0 0 0 303.98 269.03"
/>
<path stroke="#808080" vector-effect="non-scaling-stroke" d="
  M 200.0912 271.6651
  A 1.14 1.07 15.0 0 0 199.2669 270.3365
  A 1.14 1.07 15.0 0 0 197.8888 271.0749
  A 1.14 1.07 15.0 0 0 198.7131 272.4035
  A 1.14 1.07 15.0 0 0 200.0912 271.6651"
/>
<path stroke="#808080" vector-effect="non-scaling-stroke" d="
  M 298.58 272.83
  Q 298.13 273.98 298.47 274.56
  Q 298.83 275.19 299.67 274.84
  Q 300.30 274.58 300.56 273.94
  Q 300.78 273.40 300.33 273.02
  Q 299.87 272.63 299.30 272.47
  A 0.61 0.61 0.0 0 0 298.58 272.83"
/>
<path stroke="#808080" vector-effect="non-scaling-stroke" d="
  M 203.0013 277.1632
  A 1.27 1.05 68.7 0 0 203.5183 275.5986
  A 1.27 1.05 68.7 0 0 202.0787 274.7968
  A 1.27 1.05 68.7 0 0 201.5617 276.3614
  A 1.27 1.05 68.7 0 0 203.0013 277.1632"
/>
<path stroke="#808080" vector-effect="non-scaling-stroke" d="
  M 296.85 278.14
  A 1.19 1.19 0.0 0 0 295.66 276.95
  A 1.19 1.19 0.0 0 0 294.47 278.14
  A 1.19 1.19 0.0 0 0 295.66 279.33
  A 1.19 1.19 0.0 0 0 296.85 278.14"
/>
<path stroke="#808080" vector-effect="non-scaling-stroke" d="
  M 207.64 280.21
  A 1.15 1.15 0.0 0 0 206.49 279.06
  A 1.15 1.15 0.0 0 0 205.34 280.21
  A 1.15 1.15 0.0 0 0 206.49 281.36
  A 1.15 1.15 0.0 0 0 207.64 280.21"
/>
<path stroke="#808080" vector-effect="non-scaling-stroke" d="
  M 292.61 282.40
  A 1.16 1.16 0.0 0 0 291.45 281.24
  A 1.16 1.16 0.0 0 0 290.29 282.40
  A 1.16 1.16 0.0 0 0 291.45 283.56
  A 1.16 1.16 0.0 0 0 292.61 282.40"
/>
<path stroke="#808080" vector-effect="non-scaling-stroke" d="
  M 211.99 284.13
  A 1.16 1.16 0.0 0 0 210.83 282.97
  A 1.16 1.16 0.0 0 0 209.67 284.13
  A 1.16 1.16 0.0 0 0 210.83 285.29
  A 1.16 1.16 0.0 0 0 211.99 284.13"
/>
<path stroke="#808080" vector-effect="non-scaling-stroke" d="
  M 288.06 285.99
  A 1.19 1.19 0.0 0 0 286.87 284.80
  A 1.19 1.19 0.0 0 0 285.68 285.99
  A 1.19 1.19 0.0 0 0 286.87 287.18
  A 1.19 1.19 0.0 0 0 288.06 285.99"
/>
<path stroke="#808080" vector-effect="non-scaling-stroke" d="
  M 216.71 287.65
  A 1.11 1.11 0.0 0 0 215.60 286.54
  A 1.11 1.11 0.0 0 0 214.49 287.65
  A 1.11 1.11 0.0 0 0 215.60 288.76
  A 1.11 1.11 0.0 0 0 216.71 287.65"
/>
<path stroke="#808080" vector-effect="non-scaling-stroke" d="
  M 282.0107 290.4700
  A 1.23 1.11 89.5 0 0 283.1100 289.2303
  A 1.23 1.11 89.5 0 0 281.9893 288.0100
  A 1.23 1.11 89.5 0 0 280.8900 289.2497
  A 1.23 1.11 89.5 0 0 282.0107 290.4700"
/>
<path stroke="#808080" vector-effect="non-scaling-stroke" d="
  M 219.66 291.31
  Q 221.03 292.34 221.73 290.93
  A 1.03 1.03 0.0 0 0 220.05 289.77
  L 219.57 290.28
  Q 219.04 290.84 219.66 291.31"
/>
<path stroke="#808080" vector-effect="non-scaling-stroke" d="
  M 278.05 292.00
  A 1.15 1.15 0.0 0 0 276.90 290.85
  A 1.15 1.15 0.0 0 0 275.75 292.00
  A 1.15 1.15 0.0 0 0 276.90 293.15
  A 1.15 1.15 0.0 0 0 278.05 292.00"
/>
<path stroke="#808080" vector-effect="non-scaling-stroke" d="
  M 226.71 292.33
  Q 224.77 291.39 224.81 293.58
  Q 224.82 294.32 225.55 294.25
  L 226.38 294.17
  A 0.97 0.97 0.0 0 0 226.71 292.33"
/>
<path stroke="#808080" vector-effect="non-scaling-stroke" d="
  M 272.66 294.23
  A 1.18 1.18 0.0 0 0 271.48 293.05
  A 1.18 1.18 0.0 0 0 270.30 294.23
  A 1.18 1.18 0.0 0 0 271.48 295.41
  A 1.18 1.18 0.0 0 0 272.66 294.23"
/>
<path stroke="#808080" vector-effect="non-scaling-stroke" d="
  M 232.3009 294.3517
  A 1.21 1.10 -38.2 0 0 230.6698 294.2356
  A 1.21 1.10 -38.2 0 0 230.3991 295.8483
  A 1.21 1.10 -38.2 0 0 232.0302 295.9644
  A 1.21 1.10 -38.2 0 0 232.3009 294.3517"
/>
<path stroke="#808080" vector-effect="non-scaling-stroke" d="
  M 265.2783 297.0201
  A 1.18 1.11 124.7 0 0 266.8626 296.6819
  A 1.18 1.11 124.7 0 0 266.6217 295.0799
  A 1.18 1.11 124.7 0 0 265.0374 295.4181
  A 1.18 1.11 124.7 0 0 265.2783 297.0201"
/>
<path stroke="#808080" vector-effect="non-scaling-stroke" d="
  M 236.93 295.68
  Q 236.57 295.73 236.28 295.96
  Q 235.25 296.79 236.39 297.53
  Q 237.72 298.40 238.28 296.69
  A 0.84 0.84 0.0 0 0 237.34 295.61
  Q 237.13 295.65 236.93 295.68"
/>
<path stroke="#808080" vector-effect="non-scaling-stroke" d="
  M 261.37 297.15
  A 1.19 1.19 0.0 0 0 260.18 295.96
  A 1.19 1.19 0.0 0 0 258.99 297.15
  A 1.19 1.19 0.0 0 0 260.18 298.34
  A 1.19 1.19 0.0 0 0 261.37 297.15"
/>
<path stroke="#808080" vector-effect="non-scaling-stroke" d="
  M 243.92 297.67
  A 1.15 1.15 0.0 0 0 242.77 296.52
  A 1.15 1.15 0.0 0 0 241.62 297.67
  A 1.15 1.15 0.0 0 0 242.77 298.82
  A 1.15 1.15 0.0 0 0 243.92 297.67"
/>
<path stroke="#808080" vector-effect="non-scaling-stroke" d="
  M 255.53 297.90
  A 1.15 1.15 0.0 0 0 254.38 296.75
  A 1.15 1.15 0.0 0 0 253.23 297.90
  A 1.15 1.15 0.0 0 0 254.38 299.05
  A 1.15 1.15 0.0 0 0 255.53 297.90"
/>
<path stroke="#808080" vector-effect="non-scaling-stroke" d="
  M 249.66 298.07
  A 1.13 1.13 0.0 0 0 248.53 296.94
  A 1.13 1.13 0.0 0 0 247.40 298.07
  A 1.13 1.13 0.0 0 0 248.53 299.20
  A 1.13 1.13 0.0 0 0 249.66 298.07"
/>
<path stroke="#808080" vector-effect="non-scaling-stroke" d="
  M 173.4671 195.6829
  A 2.91 2.91 0.0 0 0 172.3121 191.7330
  L 165.2949 187.8912
  A 2.91 2.91 0.0 0 0 161.3450 189.0462
  L 161.1529 189.3971
  A 2.91 2.91 0.0 0 0 162.3079 193.3470
  L 169.3251 197.1888
  A 2.91 2.91 0.0 0 0 173.2750 196.0338
  L 173.4671 195.6829"
/>
<path stroke="#808080" vector-effect="non-scaling-stroke" d="
  M 263.82 215.01
  L 273.14 215.01
  A 0.66 0.66 0.0 0 0 273.80 214.35
  L 273.80 191.22
  A 6.03 5.25 90.0 0 0 268.55 185.19
  L 268.41 185.19
  A 6.03 5.25 -90.0 0 0 263.16 191.22
  L 263.16 214.35
  A 0.66 0.66 0.0 0 0 263.82 215.01"
/>
<path stroke="#808080" vector-effect="non-scaling-stroke" d="
  M 265.90 243.32
  C 259.81 244.65 256.98 246.26 256.93 253.13
  Q 256.84 265.19 256.95 277.95
  A 1.22 1.22 0.0 0 0 258.03 279.15
  L 258.28 279.18
  Q 259.14 279.28 259.15 278.42
  C 259.20 274.73 258.32 263.71 260.66 261.41
  C 264.29 257.86 267.17 262.19 267.24 265.61
  Q 267.35 271.48 267.36 278.00
  A 1.16 1.15 -89.0 0 0 268.47 279.16
  L 268.74 279.16
  A 0.86 0.85 -88.7 0 0 269.63 278.30
  Q 269.69 270.54 269.79 264.00
  Q 269.82 262.33 271.48 261.10
  C 275.20 258.35 277.63 262.24 277.70 265.53
  Q 277.82 270.85 277.82 277.86
  A 1.28 1.27 4.5 0 0 278.90 279.12
  L 279.16 279.15
  A 0.76 0.75 -85.1 0 0 280.03 278.41
  Q 280.16 265.55 280.09 252.99
  Q 280.03 244.26 271.40 243.51
  A 1.26 1.25 -87.5 0 1 270.26 242.26
  L 270.28 218.27
  A 0.26 0.25 1.1 0 0 270.02 218.01
  L 267.00 217.99
  A 0.27 0.26 0.0 0 0 266.73 218.25
  L 266.74 242.27
  A 1.08 1.06 84.0 0 1 265.90 243.32"
/>
<path stroke="#808080" vector-effect="non-scaling-stroke" d="
  M 231.47 221.65
  C 232.78 220.81 234.41 220.28 235.48 219.43
  C 243.26 213.18 244.37 201.85 240.21 193.23
  C 236.77 186.09 228.08 182.46 221.74 188.77
  C 214.21 196.25 214.50 209.58 221.05 217.57
  C 222.58 219.43 224.88 220.43 227.00 221.65
  Q 227.49 221.93 227.49 222.49
  L 227.48 246.74
  A 0.26 0.26 0.0 0 0 227.74 247.00
  L 230.77 246.98
  Q 231.02 246.98 231.02 246.73
  L 231.01 222.48
  Q 231.01 221.94 231.47 221.65"
/>
<path stroke="#808080" vector-effect="non-scaling-stroke" d="
  M 234.14 249.81
  L 224.40 249.81
  A 0.44 0.44 0.0 0 0 223.96 250.25
  L 223.96 273.57
  A 6.08 5.20 90.0 0 0 229.16 279.65
  L 229.38 279.65
  A 6.08 5.20 -90.0 0 0 234.58 273.57
  L 234.58 250.25
  A 0.44 0.44 0.0 0 0 234.14 249.81"
/>
</g>
<path fill="#ffffff" d="
  M 0.00 0.00
  L 500.00 0.00
  L 500.00 500.00
  L 0.00 500.00
  L 0.00 0.00
  Z
  M 249.88 148.78
  Q 250.11 149.31 249.85 149.73
  Q 249.60 150.15 248.83 150.24
  C 247.70 150.38 246.87 150.66 245.72 150.23
  Q 239.95 148.08 233.76 149.24
  Q 233.30 149.32 233.26 149.79
  Q 233.06 151.97 234.08 153.42
  C 238.33 159.45 247.70 159.60 254.08 157.34
  C 262.63 154.32 263.79 142.70 253.81 140.47
  Q 249.79 139.57 245.53 138.99
  A 1.18 1.18 0.0 0 1 244.74 137.11
  Q 245.33 136.34 246.77 136.74
  C 248.38 137.19 249.67 137.93 251.37 137.96
  Q 255.05 138.04 258.68 137.81
  A 0.97 0.97 0.0 0 0 259.59 136.79
  C 259.28 130.86 250.87 128.22 246.31 128.44
  C 242.93 128.60 239.99 129.13 237.34 131.10
  C 230.55 136.15 233.50 145.40 241.52 146.74
  Q 245.33 147.38 249.16 148.19
  Q 249.67 148.30 249.88 148.78
  Z
  M 312.21 185.95
  L 322.62 159.42
  A 1.20 1.19 -59.0 0 0 322.29 158.08
  L 314.81 151.59
  A 1.71 1.71 0.0 0 0 312.84 151.41
  L 288.81 165.36
  Q 288.13 165.75 288.39 165.01
  L 296.88 140.96
  A 1.42 1.42 0.0 0 0 296.01 139.15
  L 288.52 136.54
  A 1.15 1.15 0.0 0 0 287.06 137.24
  L 284.19 145.31
  Q 284.12 145.51 283.92 145.44
  L 278.01 143.43
  A 0.35 0.35 0.0 0 1 277.79 142.99
  L 280.65 134.89
  A 1.07 1.07 0.0 0 0 279.99 133.53
  L 271.82 130.70
  A 0.77 0.77 0.0 0 0 270.85 131.17
  L 261.72 157.00
  A 1.25 1.24 19.4 0 0 262.49 158.60
  L 270.33 161.29
  A 0.97 0.97 0.0 0 0 271.56 160.70
  L 274.39 152.73
  Q 274.63 152.05 275.31 152.28
  L 280.43 154.06
  Q 281.06 154.28 280.84 154.91
  L 277.98 162.96
  A 0.94 0.94 0.0 0 0 278.49 164.14
  C 281.94 165.61 286.71 166.25 289.46 168.57
  Q 291.74 170.49 293.81 172.35
  A 1.75 1.75 0.0 0 0 295.88 172.56
  L 297.84 171.41
  Q 298.29 171.14 298.69 171.48
  L 304.85 176.79
  A 0.69 0.68 -57.9 0 1 305.03 177.59
  L 304.24 179.36
  A 2.16 2.15 32.4 0 0 304.81 181.88
  Q 306.87 183.64 308.89 185.34
  Q 310.49 186.67 311.40 188.71
  Q 313.04 192.36 315.06 195.46
  A 1.43 1.43 0.0 0 0 316.98 195.91
  Q 320.28 193.97 323.26 192.51
  Q 324.02 192.14 324.27 193.18
  Q 324.41 193.74 324.06 194.21
  L 319.28 200.57
  A 2.25 2.24 -40.8 0 0 319.10 202.98
  L 323.16 210.41
  A 0.94 0.93 -42.8 0 0 324.77 210.47
  L 330.25 201.99
  Q 330.58 201.48 331.14 201.71
  C 338.64 204.70 346.84 198.89 344.85 190.54
  C 343.52 184.98 339.63 179.27 336.82 174.25
  Q 336.29 173.31 335.34 173.83
  L 312.57 186.27
  Q 311.96 186.60 312.21 185.95
  Z
  M 198.41 141.93
  L 208.16 167.21
  A 1.13 1.13 0.0 0 0 209.63 167.86
  L 222.37 162.94
  A 12.55 11.20 -21.1 0 0 230.05 147.98
  L 227.54 141.48
  A 12.55 11.20 -21.1 0 0 211.80 135.55
  L 199.06 140.47
  A 1.13 1.13 0.0 0 0 198.41 141.93
  Z
  M 195.5678 154.7522
  A 11.55 11.55 0.0 0 0 179.2545 153.9258
  L 175.5595 157.2646
  A 11.55 11.55 0.0 0 0 174.7331 173.5778
  L 179.3322 178.6678
  A 11.55 11.55 0.0 0 0 195.6455 179.4942
  L 199.3405 176.1554
  A 11.55 11.55 0.0 0 0 200.1669 159.8422
  L 195.5678 154.7522
  Z
  M 322.47 235.76
  A 72.43 72.43 0.0 0 0 250.04 163.33
  A 72.43 72.43 0.0 0 0 177.61 235.76
  A 72.43 72.43 0.0 0 0 250.04 308.19
  A 72.43 72.43 0.0 0 0 322.47 235.76
  Z
  M 181.5134 197.8884
  A 11.62 11.62 0.0 0 0 177.2325 182.0226
  L 171.3549 178.6429
  A 11.62 11.62 0.0 0 0 155.4892 182.9238
  L 153.0466 187.1716
  A 11.62 11.62 0.0 0 0 157.3275 203.0374
  L 163.2051 206.4171
  A 11.62 11.62 0.0 0 0 179.0708 202.1362
  L 181.5134 197.8884
  Z
  M 333.01 220.67
  A 0.58 0.58 0.0 0 1 333.59 220.00
  L 335.07 220.01
  A 0.58 0.58 0.0 0 1 335.64 220.50
  L 337.48 232.01
  A 0.58 0.58 0.0 0 0 338.14 232.49
  L 344.66 231.42
  A 0.58 0.58 0.0 0 0 345.14 230.76
  L 343.22 219.10
  A 0.58 0.58 0.0 0 1 343.72 218.43
  L 345.19 218.25
  A 0.58 0.58 0.0 0 1 345.83 218.73
  L 347.88 231.22
  A 0.58 0.58 0.0 0 0 348.54 231.70
  L 355.47 230.56
  A 0.58 0.58 0.0 0 0 355.95 229.90
  L 352.31 207.52
  A 0.58 0.58 0.0 0 0 351.65 207.04
  L 323.76 211.62
  A 0.58 0.58 0.0 0 0 323.28 212.28
  L 327.00 235.00
  A 0.58 0.58 0.0 0 0 327.66 235.48
  L 334.59 234.32
  A 0.58 0.58 0.0 0 0 335.07 233.65
  L 333.01 220.67
  Z
  M 154.47 221.42
  A 0.73 0.73 0.0 0 1 153.69 222.03
  L 152.02 221.89
  A 0.73 0.73 0.0 0 1 151.36 221.05
  L 153.18 209.45
  A 0.73 0.73 0.0 0 0 152.58 208.61
  L 145.47 207.44
  A 0.73 0.73 0.0 0 0 144.63 208.05
  L 141.22 229.80
  A 0.73 0.73 0.0 0 0 141.83 230.63
  L 169.42 234.95
  A 0.73 0.73 0.0 0 0 170.25 234.34
  L 171.64 225.60
  A 0.73 0.73 0.0 0 0 171.04 224.77
  L 163.56 223.61
  A 0.73 0.73 0.0 0 1 162.95 222.78
  L 164.63 212.07
  A 0.73 0.73 0.0 0 0 164.02 211.23
  L 156.97 210.08
  A 0.73 0.73 0.0 0 0 156.13 210.69
  L 154.47 221.42
  Z"
/>
<path fill="#010101" d="
  M 249.16 148.19
  Q 245.33 147.38 241.52 146.74
  C 233.50 145.40 230.55 136.15 237.34 131.10
  C 239.99 129.13 242.93 128.60 246.31 128.44
  C 250.87 128.22 259.28 130.86 259.59 136.79
  A 0.97 0.97 0.0 0 1 258.68 137.81
  Q 255.05 138.04 251.37 137.96
  C 249.67 137.93 248.38 137.19 246.77 136.74
  Q 245.33 136.34 244.74 137.11
  A 1.18 1.18 0.0 0 0 245.53 138.99
  Q 249.79 139.57 253.81 140.47
  C 263.79 142.70 262.63 154.32 254.08 157.34
  C 247.70 159.60 238.33 159.45 234.08 153.42
  Q 233.06 151.97 233.26 149.79
  Q 233.30 149.32 233.76 149.24
  Q 239.95 148.08 245.72 150.23
  C 246.87 150.66 247.70 150.38 248.83 150.24
  Q 249.60 150.15 249.85 149.73
  Q 250.11 149.31 249.88 148.78
  Q 249.67 148.30 249.16 148.19
  Z"
/>
<path fill="#010101" d="
  M 312.57 186.27
  L 335.34 173.83
  Q 336.29 173.31 336.82 174.25
  C 339.63 179.27 343.52 184.98 344.85 190.54
  C 346.84 198.89 338.64 204.70 331.14 201.71
  Q 330.58 201.48 330.25 201.99
  L 324.77 210.47
  A 0.94 0.93 -42.8 0 1 323.16 210.41
  L 319.10 202.98
  A 2.25 2.24 -40.8 0 1 319.28 200.57
  L 324.06 194.21
  Q 324.41 193.74 324.27 193.18
  Q 324.02 192.14 323.26 192.51
  Q 320.28 193.97 316.98 195.91
  A 1.43 1.43 0.0 0 1 315.06 195.46
  Q 313.04 192.36 311.40 188.71
  Q 310.49 186.67 308.89 185.34
  Q 306.87 183.64 304.81 181.88
  A 2.16 2.15 32.4 0 1 304.24 179.36
  L 305.03 177.59
  A 0.69 0.68 -57.9 0 0 304.85 176.79
  L 298.69 171.48
  Q 298.29 171.14 297.84 171.41
  L 295.88 172.56
  A 1.75 1.75 0.0 0 1 293.81 172.35
  Q 291.74 170.49 289.46 168.57
  C 286.71 166.25 281.94 165.61 278.49 164.14
  A 0.94 0.94 0.0 0 1 277.98 162.96
  L 280.84 154.91
  Q 281.06 154.28 280.43 154.06
  L 275.31 152.28
  Q 274.63 152.05 274.39 152.73
  L 271.56 160.70
  A 0.97 0.97 0.0 0 1 270.33 161.29
  L 262.49 158.60
  A 1.25 1.24 19.4 0 1 261.72 157.00
  L 270.85 131.17
  A 0.77 0.77 0.0 0 1 271.82 130.70
  L 279.99 133.53
  A 1.07 1.07 0.0 0 1 280.65 134.89
  L 277.79 142.99
  A 0.35 0.35 0.0 0 0 278.01 143.43
  L 283.92 145.44
  Q 284.12 145.51 284.19 145.31
  L 287.06 137.24
  A 1.15 1.15 0.0 0 1 288.52 136.54
  L 296.01 139.15
  A 1.42 1.42 0.0 0 1 296.88 140.96
  L 288.39 165.01
  Q 288.13 165.75 288.81 165.36
  L 312.84 151.41
  A 1.71 1.71 0.0 0 1 314.81 151.59
  L 322.29 158.08
  A 1.20 1.19 -59.0 0 1 322.62 159.42
  L 312.21 185.95
  Q 311.96 186.60 312.57 186.27
  Z
  M 309.16 168.92
  L 311.75 162.82
  Q 312.11 161.96 311.33 162.47
  L 305.89 166.03
  Q 305.33 166.39 305.84 166.83
  L 308.45 169.08
  Q 308.92 169.48 309.16 168.92
  Z
  M 334.19 186.43
  L 330.98 188.15
  A 0.42 0.42 0.0 0 0 330.81 188.72
  L 331.96 190.86
  A 2.12 2.01 61.8 0 0 334.73 191.77
  L 335.13 191.56
  A 2.12 2.01 61.8 0 0 335.90 188.74
  L 334.76 186.61
  A 0.42 0.42 0.0 0 0 334.19 186.43
  Z"
/>
<path fill="#010101" d="
  M 198.41 141.93
  A 1.13 1.13 0.0 0 1 199.06 140.47
  L 211.80 135.55
  A 12.55 11.20 -21.1 0 1 227.54 141.48
  L 230.05 147.98
  A 12.55 11.20 -21.1 0 1 222.37 162.94
  L 209.63 167.86
  A 1.13 1.13 0.0 0 1 208.16 167.21
  L 198.41 141.93
  Z
  M 210.94 145.19
  L 215.19 156.31
  A 0.60 0.60 0.0 0 0 215.96 156.66
  L 217.91 155.91
  A 3.21 3.08 -20.9 0 0 219.81 151.89
  L 217.34 145.41
  A 3.21 3.08 -20.9 0 0 213.24 143.67
  L 211.29 144.42
  A 0.60 0.60 0.0 0 0 210.94 145.19
  Z"
/>
<path fill="#ffffff" d="
  M 210.94 145.19
  A 0.60 0.60 0.0 0 1 211.29 144.42
  L 213.24 143.67
  A 3.21 3.08 -20.9 0 1 217.34 145.41
  L 219.81 151.89
  A 3.21 3.08 -20.9 0 1 217.91 155.91
  L 215.96 156.66
  A 0.60 0.60 0.0 0 1 215.19 156.31
  L 210.94 145.19
  Z"
/>
<path fill="#010101" d="
  M 200.1669 159.8422
  A 11.55 11.55 0.0 0 1 199.3405 176.1554
  L 195.6455 179.4942
  A 11.55 11.55 0.0 0 1 179.3322 178.6678
  L 174.7331 173.5778
  A 11.55 11.55 0.0 0 1 175.5595 157.2646
  L 179.2545 153.9258
  A 11.55 11.55 0.0 0 1 195.5678 154.7522
  L 200.1669 159.8422
  Z
  M 187.1431 161.7058
  A 2.95 2.95 0.0 0 0 182.9777 161.4729
  L 182.7242 161.6995
  A 2.95 2.95 0.0 0 0 182.4913 165.8650
  L 187.7569 171.7542
  A 2.95 2.95 0.0 0 0 191.9223 171.9871
  L 192.1758 171.7605
  A 2.95 2.95 0.0 0 0 192.4087 167.5950
  L 187.1431 161.7058
  Z"
/>
<rect fill="#ffffff" x="-3.12" y="-6.90" transform="translate(187.45,166.73) rotate(-41.8)" width="6.24" height="13.80" rx="2.95"/>
<path fill="#ffffff" d="
  M 311.75 162.82
  L 309.16 168.92
  Q 308.92 169.48 308.45 169.08
  L 305.84 166.83
  Q 305.33 166.39 305.89 166.03
  L 311.33 162.47
  Q 312.11 161.96 311.75 162.82
  Z"
/>
<path fill="#010101" d="
  M 322.47 235.76
  A 72.43 72.43 0.0 0 1 250.04 308.19
  A 72.43 72.43 0.0 0 1 177.61 235.76
  A 72.43 72.43 0.0 0 1 250.04 163.33
  A 72.43 72.43 0.0 0 1 322.47 235.76
  Z
  M 318.22 235.74
  A 68.17 68.17 0.0 0 0 250.05 167.57
  A 68.17 68.17 0.0 0 0 181.88 235.74
  A 68.17 68.17 0.0 0 0 250.05 303.91
  A 68.17 68.17 0.0 0 0 318.22 235.74
  Z"
/>
<path fill="#ffffff" d="
  M 318.22 235.74
  A 68.17 68.17 0.0 0 1 250.05 303.91
  A 68.17 68.17 0.0 0 1 181.88 235.74
  A 68.17 68.17 0.0 0 1 250.05 167.57
  A 68.17 68.17 0.0 0 1 318.22 235.74
  Z
  M 249.78 173.55
  A 0.32 0.32 0.0 0 0 249.86 173.11
  Q 249.28 172.24 248.31 172.21
  A 0.89 0.89 0.0 0 0 247.41 172.94
  Q 247.25 173.84 248.04 174.39
  A 0.53 0.53 0.0 0 0 248.67 174.38
  L 249.78 173.55
  Z
  M 255.01 172.74
  Q 254.79 172.40 254.59 172.37
  A 1.26 1.00 -11.2 0 0 253.22 173.98
  Q 254.14 175.07 255.39 174.68
  A 0.75 0.74 -32.3 0 0 255.68 173.42
  L 255.11 172.89
  Q 255.11 172.89 255.01 172.74
  Z
  M 243.24 172.82
  Q 242.80 172.96 242.24 172.94
  A 1.01 1.01 0.0 0 0 242.06 174.94
  Q 242.73 175.04 243.40 174.95
  A 0.66 0.65 -5.6 0 0 243.97 174.26
  L 243.90 173.26
  Q 243.86 172.61 243.24 172.82
  Z
  M 261.32 174.17
  A 1.16 1.16 0.0 0 0 260.16 173.01
  A 1.16 1.16 0.0 0 0 259.00 174.17
  A 1.16 1.16 0.0 0 0 260.16 175.33
  A 1.16 1.16 0.0 0 0 261.32 174.17
  Z
  M 238.11 174.78
  A 1.15 1.15 0.0 0 0 236.96 173.63
  A 1.15 1.15 0.0 0 0 235.81 174.78
  A 1.15 1.15 0.0 0 0 236.96 175.93
  A 1.15 1.15 0.0 0 0 238.11 174.78
  Z
  M 266.8823 174.6798
  A 1.23 1.05 -37.0 0 0 265.2681 174.5814
  A 1.23 1.05 -37.0 0 0 264.9177 176.1602
  A 1.23 1.05 -37.0 0 0 266.5319 176.2586
  A 1.23 1.05 -37.0 0 0 266.8823 174.6798
  Z
  M 232.16 175.28
  A 0.45 0.43 -11.0 0 0 231.73 175.00
  Q 230.69 175.05 230.26 176.02
  Q 229.90 176.82 230.71 177.14
  Q 232.04 177.67 232.36 176.73
  Q 232.53 176.21 232.16 175.28
  Z
  M 272.5912 176.4481
  A 1.22 1.09 -32.3 0 0 270.9776 176.1787
  A 1.22 1.09 -32.3 0 0 270.5288 177.7519
  A 1.22 1.09 -32.3 0 0 272.1424 178.0213
  A 1.22 1.09 -32.3 0 0 272.5912 176.4481
  Z
  M 227.01 178.22
  A 1.16 1.16 0.0 0 0 225.85 177.06
  A 1.16 1.16 0.0 0 0 224.69 178.22
  A 1.16 1.16 0.0 0 0 225.85 179.38
  A 1.16 1.16 0.0 0 0 227.01 178.22
  Z
  M 278.04 179.47
  A 1.15 1.15 0.0 0 0 276.89 178.32
  A 1.15 1.15 0.0 0 0 275.74 179.47
  A 1.15 1.15 0.0 0 0 276.89 180.62
  A 1.15 1.15 0.0 0 0 278.04 179.47
  Z
  M 221.66 180.81
  A 1.12 1.12 0.0 0 0 220.54 179.69
  A 1.12 1.12 0.0 0 0 219.42 180.81
  A 1.12 1.12 0.0 0 0 220.54 181.93
  A 1.12 1.12 0.0 0 0 221.66 180.81
  Z
  M 282.7843 183.1065
  A 1.19 1.09 51.9 0 0 282.9078 181.4974
  A 1.19 1.09 51.9 0 0 281.3157 181.2335
  A 1.19 1.09 51.9 0 0 281.1922 182.8426
  A 1.19 1.09 51.9 0 0 282.7843 183.1065
  Z
  M 216.75 183.76
  A 1.21 1.21 0.0 0 0 215.54 182.55
  A 1.21 1.21 0.0 0 0 214.33 183.76
  A 1.21 1.21 0.0 0 0 215.54 184.97
  A 1.21 1.21 0.0 0 0 216.75 183.76
  Z
  M 263.82 218.51
  L 263.83 240.23
  A 0.62 0.61 -6.5 0 1 263.35 240.83
  Q 257.84 242.07 255.47 246.36
  Q 253.97 249.05 253.97 255.37
  Q 253.97 266.75 254.10 278.68
  A 3.33 3.33 0.0 0 0 257.08 281.96
  L 258.05 282.06
  A 3.65 3.65 0.0 0 0 262.07 278.45
  L 262.15 263.99
  A 0.81 0.81 0.0 0 1 263.00 263.18
  L 263.28 263.20
  Q 264.36 263.26 264.38 264.34
  Q 264.52 271.80 264.75 277.99
  Q 264.87 281.32 267.50 281.96
  C 271.32 282.90 272.45 279.67 272.49 276.46
  Q 272.56 270.41 272.58 263.93
  A 0.87 0.86 0.7 0 1 273.47 263.07
  L 273.88 263.08
  A 0.91 0.91 0.0 0 1 274.77 263.96
  Q 275.02 270.95 274.86 276.25
  C 274.64 283.75 283.27 283.93 283.07 277.24
  Q 282.77 266.57 282.91 255.89
  C 283.01 248.03 281.78 242.70 273.71 240.87
  Q 273.21 240.76 273.21 240.25
  L 273.18 219.09
  Q 273.18 218.23 274.03 218.11
  Q 276.47 217.77 276.48 216.50
  Q 276.64 204.00 276.63 191.50
  C 276.62 186.81 274.50 183.08 269.56 182.86
  C 262.83 182.55 260.35 185.65 260.36 192.15
  Q 260.39 204.22 260.40 216.63
  A 1.16 1.16 0.0 0 0 261.22 217.74
  Q 262.24 218.06 263.28 218.00
  Q 263.82 217.97 263.82 218.51
  Z
  M 233.94 246.47
  L 233.93 224.22
  Q 233.93 223.68 234.40 223.43
  C 244.27 218.22 246.54 207.84 244.86 197.96
  C 242.15 182.06 223.14 176.35 215.63 192.68
  C 210.68 203.45 213.31 217.57 224.12 223.45
  Q 224.57 223.70 224.57 224.22
  L 224.56 246.40
  Q 224.56 246.99 223.97 246.99
  L 222.45 247.00
  A 1.31 1.30 -0.2 0 0 221.15 248.30
  Q 221.12 259.63 221.14 270.16
  C 221.15 274.81 220.98 278.78 224.58 280.92
  C 230.98 284.74 237.23 280.58 237.33 273.42
  Q 237.49 260.82 237.34 248.34
  A 1.36 1.36 0.0 0 0 235.98 247.00
  L 234.47 247.01
  Q 233.94 247.01 233.94 246.47
  Z
  M 288.03 185.33
  A 1.13 1.13 0.0 0 0 286.90 184.20
  A 1.13 1.13 0.0 0 0 285.77 185.33
  A 1.13 1.13 0.0 0 0 286.90 186.46
  A 1.13 1.13 0.0 0 0 288.03 185.33
  Z
  M 212.08 187.21
  A 1.19 1.19 0.0 0 0 210.89 186.02
  A 1.19 1.19 0.0 0 0 209.70 187.21
  A 1.19 1.19 0.0 0 0 210.89 188.40
  A 1.19 1.19 0.0 0 0 212.08 187.21
  Z
  M 292.66 189.07
  A 1.15 1.15 0.0 0 0 291.51 187.92
  A 1.15 1.15 0.0 0 0 290.36 189.07
  A 1.15 1.15 0.0 0 0 291.51 190.22
  A 1.15 1.15 0.0 0 0 292.66 189.07
  Z
  M 207.71 191.10
  A 1.15 1.15 0.0 0 0 206.56 189.95
  A 1.15 1.15 0.0 0 0 205.41 191.10
  A 1.15 1.15 0.0 0 0 206.56 192.25
  A 1.15 1.15 0.0 0 0 207.71 191.10
  Z
  M 296.81 193.17
  A 1.20 1.20 0.0 0 0 295.61 191.97
  A 1.20 1.20 0.0 0 0 294.41 193.17
  A 1.20 1.20 0.0 0 0 295.61 194.37
  A 1.20 1.20 0.0 0 0 296.81 193.17
  Z
  M 203.69 195.40
  A 1.16 1.16 0.0 0 0 202.53 194.24
  A 1.16 1.16 0.0 0 0 201.37 195.40
  A 1.16 1.16 0.0 0 0 202.53 196.56
  A 1.16 1.16 0.0 0 0 203.69 195.40
  Z
  M 300.49 197.67
  A 1.12 1.12 0.0 0 0 299.37 196.55
  A 1.12 1.12 0.0 0 0 298.25 197.67
  A 1.12 1.12 0.0 0 0 299.37 198.79
  A 1.12 1.12 0.0 0 0 300.49 197.67
  Z
  M 198.4087 201.2003
  A 1.31 1.12 112.5 0 0 199.9447 200.4186
  A 1.31 1.12 112.5 0 0 199.4113 198.7797
  A 1.31 1.12 112.5 0 0 197.8753 199.5614
  A 1.31 1.12 112.5 0 0 198.4087 201.2003
  Z
  M 303.91 202.40
  A 1.11 1.11 0.0 0 0 302.80 201.29
  A 1.11 1.11 0.0 0 0 301.69 202.40
  A 1.11 1.11 0.0 0 0 302.80 203.51
  A 1.11 1.11 0.0 0 0 303.91 202.40
  Z
  M 196.98 204.97
  A 1.14 1.14 0.0 0 0 195.84 203.83
  A 1.14 1.14 0.0 0 0 194.70 204.97
  A 1.14 1.14 0.0 0 0 195.84 206.11
  A 1.14 1.14 0.0 0 0 196.98 204.97
  Z
  M 305.57 208.65
  Q 307.16 208.28 306.62 206.93
  A 0.96 0.96 0.0 0 0 304.94 206.74
  L 304.61 207.23
  A 0.92 0.92 0.0 0 0 305.57 208.65
  Z
  M 194.39 210.16
  A 1.16 1.16 0.0 0 0 193.23 209.00
  A 1.16 1.16 0.0 0 0 192.07 210.16
  A 1.16 1.16 0.0 0 0 193.23 211.32
  A 1.16 1.16 0.0 0 0 194.39 210.16
  Z
  M 309.0327 213.6194
  A 1.22 1.07 37.9 0 0 308.7273 212.0257
  A 1.22 1.07 37.9 0 0 307.1073 212.1206
  A 1.22 1.07 37.9 0 0 307.4127 213.7143
  A 1.22 1.07 37.9 0 0 309.0327 213.6194
  Z
  M 192.0826 215.0286
  A 1.19 1.08 -29.8 0 0 190.5133 214.6828
  A 1.19 1.08 -29.8 0 0 190.0174 216.2114
  A 1.19 1.08 -29.8 0 0 191.5867 216.5572
  A 1.19 1.08 -29.8 0 0 192.0826 215.0286
  Z
  M 309.29 219.26
  L 310.50 219.34
  A 0.82 0.82 0.0 0 0 311.25 218.08
  Q 310.34 216.63 309.35 217.35
  Q 309.08 217.55 308.97 217.93
  Q 308.80 218.54 308.99 219.04
  A 0.36 0.35 -7.9 0 0 309.29 219.26
  Z
  M 188.8559 222.3243
  A 1.25 1.03 118.9 0 0 190.3617 221.7278
  A 1.25 1.03 118.9 0 0 190.0641 220.1357
  A 1.25 1.03 118.9 0 0 188.5583 220.7322
  A 1.25 1.03 118.9 0 0 188.8559 222.3243
  Z
  M 311.33 222.77
  A 0.97 0.97 0.0 0 0 310.28 223.45
  Q 309.89 224.67 311.03 225.13
  A 0.92 0.92 0.0 0 0 312.27 224.49
  Q 312.64 222.94 311.33 222.77
  Z
  M 189.19 226.33
  Q 188.83 225.72 188.15 225.92
  Q 187.62 226.07 187.24 226.64
  A 1.14 1.14 0.0 0 0 188.98 228.10
  Q 189.79 227.32 189.19 226.33
  Z
  M 312.17 228.56
  Q 310.95 228.81 310.95 230.01
  A 0.81 0.80 -81.8 0 0 311.52 230.78
  Q 312.13 230.96 312.72 230.81
  Q 313.26 230.67 313.24 230.11
  Q 313.22 229.54 313.00 229.01
  Q 312.77 228.43 312.17 228.56
  Z
  M 187.9271 234.0277
  A 1.30 1.11 86.6 0 0 188.9580 232.6642
  A 1.30 1.11 86.6 0 0 187.7729 231.4323
  A 1.30 1.11 86.6 0 0 186.7420 232.7958
  A 1.30 1.11 86.6 0 0 187.9271 234.0277
  Z
  M 313.54 235.61
  A 1.17 1.17 0.0 0 0 312.37 234.44
  A 1.17 1.17 0.0 0 0 311.20 235.61
  A 1.17 1.17 0.0 0 0 312.37 236.78
  A 1.17 1.17 0.0 0 0 313.54 235.61
  Z
  M 189.00 238.71
  A 1.14 1.14 0.0 0 0 187.86 237.57
  A 1.14 1.14 0.0 0 0 186.72 238.71
  A 1.14 1.14 0.0 0 0 187.86 239.85
  A 1.14 1.14 0.0 0 0 189.00 238.71
  Z
  M 312.9859 242.4179
  A 1.18 1.07 40.6 0 0 312.7863 240.8376
  A 1.18 1.07 40.6 0 0 311.1941 240.8821
  A 1.18 1.07 40.6 0 0 311.3937 242.4624
  A 1.18 1.07 40.6 0 0 312.9859 242.4179
  Z
  M 187.9517 245.7796
  A 1.30 1.08 106.0 0 0 189.3482 244.8277
  A 1.30 1.08 106.0 0 0 188.6683 243.2804
  A 1.30 1.08 106.0 0 0 187.2718 244.2323
  A 1.30 1.08 106.0 0 0 187.9517 245.7796
  Z
  M 312.41 247.44
  A 1.12 1.12 0.0 0 0 311.29 246.32
  A 1.12 1.12 0.0 0 0 310.17 247.44
  A 1.12 1.12 0.0 0 0 311.29 248.56
  A 1.12 1.12 0.0 0 0 312.41 247.44
  Z
  M 190.58 250.16
  A 1.14 1.14 0.0 0 0 189.44 249.02
  A 1.14 1.14 0.0 0 0 188.30 250.16
  A 1.14 1.14 0.0 0 0 189.44 251.30
  A 1.14 1.14 0.0 0 0 190.58 250.16
  Z
  M 310.01 254.11
  Q 310.27 254.08 310.53 254.01
  Q 310.97 253.88 311.00 253.42
  Q 311.04 252.77 310.73 252.21
  A 0.87 0.87 0.0 0 0 309.26 252.14
  Q 308.80 252.82 308.92 253.60
  Q 308.99 254.05 309.45 254.10
  Q 309.74 254.14 310.01 254.11
  Z
  M 189.88 255.91
  Q 190.79 258.19 192.44 256.11
  A 0.95 0.95 0.0 0 0 191.59 254.58
  Q 190.65 254.68 190.15 255.03
  A 0.75 0.74 62.4 0 0 189.88 255.91
  Z
  M 307.3628 259.6875
  A 1.25 1.01 123.9 0 0 308.8983 259.2133
  A 1.25 1.01 123.9 0 0 308.7572 257.6125
  A 1.25 1.01 123.9 0 0 307.2217 258.0867
  A 1.25 1.01 123.9 0 0 307.3628 259.6875
  Z
  M 194.30 261.23
  A 1.12 1.12 0.0 0 0 193.18 260.11
  A 1.12 1.12 0.0 0 0 192.06 261.23
  A 1.12 1.12 0.0 0 0 193.18 262.35
  A 1.12 1.12 0.0 0 0 194.30 261.23
  Z
  M 306.83 264.00
  A 1.16 1.16 0.0 0 0 305.67 262.84
  A 1.16 1.16 0.0 0 0 304.51 264.00
  A 1.16 1.16 0.0 0 0 305.67 265.16
  A 1.16 1.16 0.0 0 0 306.83 264.00
  Z
  M 196.96 266.44
  A 1.14 1.14 0.0 0 0 195.82 265.30
  A 1.14 1.14 0.0 0 0 194.68 266.44
  A 1.14 1.14 0.0 0 0 195.82 267.58
  A 1.14 1.14 0.0 0 0 196.96 266.44
  Z
  M 303.98 269.03
  A 1.20 1.20 0.0 0 0 302.78 267.83
  A 1.20 1.20 0.0 0 0 301.58 269.03
  A 1.20 1.20 0.0 0 0 302.78 270.23
  A 1.20 1.20 0.0 0 0 303.98 269.03
  Z
  M 200.0912 271.6651
  A 1.14 1.07 15.0 0 0 199.2669 270.3365
  A 1.14 1.07 15.0 0 0 197.8888 271.0749
  A 1.14 1.07 15.0 0 0 198.7131 272.4035
  A 1.14 1.07 15.0 0 0 200.0912 271.6651
  Z
  M 298.58 272.83
  Q 298.13 273.98 298.47 274.56
  Q 298.83 275.19 299.67 274.84
  Q 300.30 274.58 300.56 273.94
  Q 300.78 273.40 300.33 273.02
  Q 299.87 272.63 299.30 272.47
  A 0.61 0.61 0.0 0 0 298.58 272.83
  Z
  M 203.0013 277.1632
  A 1.27 1.05 68.7 0 0 203.5183 275.5986
  A 1.27 1.05 68.7 0 0 202.0787 274.7968
  A 1.27 1.05 68.7 0 0 201.5617 276.3614
  A 1.27 1.05 68.7 0 0 203.0013 277.1632
  Z
  M 296.85 278.14
  A 1.19 1.19 0.0 0 0 295.66 276.95
  A 1.19 1.19 0.0 0 0 294.47 278.14
  A 1.19 1.19 0.0 0 0 295.66 279.33
  A 1.19 1.19 0.0 0 0 296.85 278.14
  Z
  M 207.64 280.21
  A 1.15 1.15 0.0 0 0 206.49 279.06
  A 1.15 1.15 0.0 0 0 205.34 280.21
  A 1.15 1.15 0.0 0 0 206.49 281.36
  A 1.15 1.15 0.0 0 0 207.64 280.21
  Z
  M 292.61 282.40
  A 1.16 1.16 0.0 0 0 291.45 281.24
  A 1.16 1.16 0.0 0 0 290.29 282.40
  A 1.16 1.16 0.0 0 0 291.45 283.56
  A 1.16 1.16 0.0 0 0 292.61 282.40
  Z
  M 211.99 284.13
  A 1.16 1.16 0.0 0 0 210.83 282.97
  A 1.16 1.16 0.0 0 0 209.67 284.13
  A 1.16 1.16 0.0 0 0 210.83 285.29
  A 1.16 1.16 0.0 0 0 211.99 284.13
  Z
  M 288.06 285.99
  A 1.19 1.19 0.0 0 0 286.87 284.80
  A 1.19 1.19 0.0 0 0 285.68 285.99
  A 1.19 1.19 0.0 0 0 286.87 287.18
  A 1.19 1.19 0.0 0 0 288.06 285.99
  Z
  M 216.71 287.65
  A 1.11 1.11 0.0 0 0 215.60 286.54
  A 1.11 1.11 0.0 0 0 214.49 287.65
  A 1.11 1.11 0.0 0 0 215.60 288.76
  A 1.11 1.11 0.0 0 0 216.71 287.65
  Z
  M 282.0107 290.4700
  A 1.23 1.11 89.5 0 0 283.1100 289.2303
  A 1.23 1.11 89.5 0 0 281.9893 288.0100
  A 1.23 1.11 89.5 0 0 280.8900 289.2497
  A 1.23 1.11 89.5 0 0 282.0107 290.4700
  Z
  M 219.66 291.31
  Q 221.03 292.34 221.73 290.93
  A 1.03 1.03 0.0 0 0 220.05 289.77
  L 219.57 290.28
  Q 219.04 290.84 219.66 291.31
  Z
  M 278.05 292.00
  A 1.15 1.15 0.0 0 0 276.90 290.85
  A 1.15 1.15 0.0 0 0 275.75 292.00
  A 1.15 1.15 0.0 0 0 276.90 293.15
  A 1.15 1.15 0.0 0 0 278.05 292.00
  Z
  M 226.71 292.33
  Q 224.77 291.39 224.81 293.58
  Q 224.82 294.32 225.55 294.25
  L 226.38 294.17
  A 0.97 0.97 0.0 0 0 226.71 292.33
  Z
  M 272.66 294.23
  A 1.18 1.18 0.0 0 0 271.48 293.05
  A 1.18 1.18 0.0 0 0 270.30 294.23
  A 1.18 1.18 0.0 0 0 271.48 295.41
  A 1.18 1.18 0.0 0 0 272.66 294.23
  Z
  M 232.3009 294.3517
  A 1.21 1.10 -38.2 0 0 230.6698 294.2356
  A 1.21 1.10 -38.2 0 0 230.3991 295.8483
  A 1.21 1.10 -38.2 0 0 232.0302 295.9644
  A 1.21 1.10 -38.2 0 0 232.3009 294.3517
  Z
  M 265.2783 297.0201
  A 1.18 1.11 124.7 0 0 266.8626 296.6819
  A 1.18 1.11 124.7 0 0 266.6217 295.0799
  A 1.18 1.11 124.7 0 0 265.0374 295.4181
  A 1.18 1.11 124.7 0 0 265.2783 297.0201
  Z
  M 236.93 295.68
  Q 236.57 295.73 236.28 295.96
  Q 235.25 296.79 236.39 297.53
  Q 237.72 298.40 238.28 296.69
  A 0.84 0.84 0.0 0 0 237.34 295.61
  Q 237.13 295.65 236.93 295.68
  Z
  M 261.37 297.15
  A 1.19 1.19 0.0 0 0 260.18 295.96
  A 1.19 1.19 0.0 0 0 258.99 297.15
  A 1.19 1.19 0.0 0 0 260.18 298.34
  A 1.19 1.19 0.0 0 0 261.37 297.15
  Z
  M 243.92 297.67
  A 1.15 1.15 0.0 0 0 242.77 296.52
  A 1.15 1.15 0.0 0 0 241.62 297.67
  A 1.15 1.15 0.0 0 0 242.77 298.82
  A 1.15 1.15 0.0 0 0 243.92 297.67
  Z
  M 255.53 297.90
  A 1.15 1.15 0.0 0 0 254.38 296.75
  A 1.15 1.15 0.0 0 0 253.23 297.90
  A 1.15 1.15 0.0 0 0 254.38 299.05
  A 1.15 1.15 0.0 0 0 255.53 297.90
  Z
  M 249.66 298.07
  A 1.13 1.13 0.0 0 0 248.53 296.94
  A 1.13 1.13 0.0 0 0 247.40 298.07
  A 1.13 1.13 0.0 0 0 248.53 299.20
  A 1.13 1.13 0.0 0 0 249.66 298.07
  Z"
/>
<path fill="#010101" d="
  M 249.78 173.55
  L 248.67 174.38
  A 0.53 0.53 0.0 0 1 248.04 174.39
  Q 247.25 173.84 247.41 172.94
  A 0.89 0.89 0.0 0 1 248.31 172.21
  Q 249.28 172.24 249.86 173.11
  A 0.32 0.32 0.0 0 1 249.78 173.55
  Z"
/>
<path fill="#010101" d="
  M 255.11 172.89
  L 255.68 173.42
  A 0.75 0.74 -32.3 0 1 255.39 174.68
  Q 254.14 175.07 253.22 173.98
  A 1.26 1.00 -11.2 0 1 254.59 172.37
  Q 254.79 172.40 255.01 172.74
  Q 255.11 172.89 255.11 172.89
  Z"
/>
<path fill="#010101" d="
  M 243.24 172.82
  Q 243.86 172.61 243.90 173.26
  L 243.97 174.26
  A 0.66 0.65 -5.6 0 1 243.40 174.95
  Q 242.73 175.04 242.06 174.94
  A 1.01 1.01 0.0 0 1 242.24 172.94
  Q 242.80 172.96 243.24 172.82
  Z"
/>
<circle fill="#010101" cx="260.16" cy="174.17" r="1.16"/>
<circle fill="#010101" cx="236.96" cy="174.78" r="1.15"/>
<ellipse fill="#010101" cx="0.00" cy="0.00" transform="translate(265.90,175.42) rotate(-37.0)" rx="1.23" ry="1.05"/>
<path fill="#010101" d="
  M 232.16 175.28
  Q 232.53 176.21 232.36 176.73
  Q 232.04 177.67 230.71 177.14
  Q 229.90 176.82 230.26 176.02
  Q 230.69 175.05 231.73 175.00
  A 0.45 0.43 -11.0 0 1 232.16 175.28
  Z"
/>
<ellipse fill="#010101" cx="0.00" cy="0.00" transform="translate(271.56,177.10) rotate(-32.3)" rx="1.22" ry="1.09"/>
<path fill="#010101" d="
  M 179.0708 202.1362
  A 11.62 11.62 0.0 0 1 163.2051 206.4171
  L 157.3275 203.0374
  A 11.62 11.62 0.0 0 1 153.0466 187.1716
  L 155.4892 182.9238
  A 11.62 11.62 0.0 0 1 171.3549 178.6429
  L 177.2325 182.0226
  A 11.62 11.62 0.0 0 1 181.5134 197.8884
  L 179.0708 202.1362
  Z
  M 173.4671 195.6829
  A 2.91 2.91 0.0 0 0 172.3121 191.7330
  L 165.2949 187.8912
  A 2.91 2.91 0.0 0 0 161.3450 189.0462
  L 161.1529 189.3971
  A 2.91 2.91 0.0 0 0 162.3079 193.3470
  L 169.3251 197.1888
  A 2.91 2.91 0.0 0 0 173.2750 196.0338
  L 173.4671 195.6829
  Z"
/>
<circle fill="#010101" cx="225.85" cy="178.22" r="1.16"/>
<circle fill="#010101" cx="276.89" cy="179.47" r="1.15"/>
<circle fill="#010101" cx="220.54" cy="180.81" r="1.12"/>
<ellipse fill="#010101" cx="0.00" cy="0.00" transform="translate(282.05,182.17) rotate(51.9)" rx="1.19" ry="1.09"/>
<circle fill="#010101" cx="215.54" cy="183.76" r="1.21"/>
<path fill="#010101" d="
  M 263.28 218.00
  Q 262.24 218.06 261.22 217.74
  A 1.16 1.16 0.0 0 1 260.40 216.63
  Q 260.39 204.22 260.36 192.15
  C 260.35 185.65 262.83 182.55 269.56 182.86
  C 274.50 183.08 276.62 186.81 276.63 191.50
  Q 276.64 204.00 276.48 216.50
  Q 276.47 217.77 274.03 218.11
  Q 273.18 218.23 273.18 219.09
  L 273.21 240.25
  Q 273.21 240.76 273.71 240.87
  C 281.78 242.70 283.01 248.03 282.91 255.89
  Q 282.77 266.57 283.07 277.24
  C 283.27 283.93 274.64 283.75 274.86 276.25
  Q 275.02 270.95 274.77 263.96
  A 0.91 0.91 0.0 0 0 273.88 263.08
  L 273.47 263.07
  A 0.87 0.86 0.7 0 0 272.58 263.93
  Q 272.56 270.41 272.49 276.46
  C 272.45 279.67 271.32 282.90 267.50 281.96
  Q 264.87 281.32 264.75 277.99
  Q 264.52 271.80 264.38 264.34
  Q 264.36 263.26 263.28 263.20
  L 263.00 263.18
  A 0.81 0.81 0.0 0 0 262.15 263.99
  L 262.07 278.45
  A 3.65 3.65 0.0 0 1 258.05 282.06
  L 257.08 281.96
  A 3.33 3.33 0.0 0 1 254.10 278.68
  Q 253.97 266.75 253.97 255.37
  Q 253.97 249.05 255.47 246.36
  Q 257.84 242.07 263.35 240.83
  A 0.62 0.61 -6.5 0 0 263.83 240.23
  L 263.82 218.51
  Q 263.82 217.97 263.28 218.00
  Z
  M 263.82 215.01
  L 273.14 215.01
  A 0.66 0.66 0.0 0 0 273.80 214.35
  L 273.80 191.22
  A 6.03 5.25 90.0 0 0 268.55 185.19
  L 268.41 185.19
  A 6.03 5.25 -90.0 0 0 263.16 191.22
  L 263.16 214.35
  A 0.66 0.66 0.0 0 0 263.82 215.01
  Z
  M 265.90 243.32
  C 259.81 244.65 256.98 246.26 256.93 253.13
  Q 256.84 265.19 256.95 277.95
  A 1.22 1.22 0.0 0 0 258.03 279.15
  L 258.28 279.18
  Q 259.14 279.28 259.15 278.42
  C 259.20 274.73 258.32 263.71 260.66 261.41
  C 264.29 257.86 267.17 262.19 267.24 265.61
  Q 267.35 271.48 267.36 278.00
  A 1.16 1.15 -89.0 0 0 268.47 279.16
  L 268.74 279.16
  A 0.86 0.85 -88.7 0 0 269.63 278.30
  Q 269.69 270.54 269.79 264.00
  Q 269.82 262.33 271.48 261.10
  C 275.20 258.35 277.63 262.24 277.70 265.53
  Q 277.82 270.85 277.82 277.86
  A 1.28 1.27 4.5 0 0 278.90 279.12
  L 279.16 279.15
  A 0.76 0.75 -85.1 0 0 280.03 278.41
  Q 280.16 265.55 280.09 252.99
  Q 280.03 244.26 271.40 243.51
  A 1.26 1.25 -87.5 0 1 270.26 242.26
  L 270.28 218.27
  A 0.26 0.25 1.1 0 0 270.02 218.01
  L 267.00 217.99
  A 0.27 0.26 0.0 0 0 266.73 218.25
  L 266.74 242.27
  A 1.08 1.06 84.0 0 1 265.90 243.32
  Z"
/>
<path fill="#010101" d="
  M 234.47 247.01
  L 235.98 247.00
  A 1.36 1.36 0.0 0 1 237.34 248.34
  Q 237.49 260.82 237.33 273.42
  C 237.23 280.58 230.98 284.74 224.58 280.92
  C 220.98 278.78 221.15 274.81 221.14 270.16
  Q 221.12 259.63 221.15 248.30
  A 1.31 1.30 -0.2 0 1 222.45 247.00
  L 223.97 246.99
  Q 224.56 246.99 224.56 246.40
  L 224.57 224.22
  Q 224.57 223.70 224.12 223.45
  C 213.31 217.57 210.68 203.45 215.63 192.68
  C 223.14 176.35 242.15 182.06 244.86 197.96
  C 246.54 207.84 244.27 218.22 234.40 223.43
  Q 233.93 223.68 233.93 224.22
  L 233.94 246.47
  Q 233.94 247.01 234.47 247.01
  Z
  M 231.47 221.65
  C 232.78 220.81 234.41 220.28 235.48 219.43
  C 243.26 213.18 244.37 201.85 240.21 193.23
  C 236.77 186.09 228.08 182.46 221.74 188.77
  C 214.21 196.25 214.50 209.58 221.05 217.57
  C 222.58 219.43 224.88 220.43 227.00 221.65
  Q 227.49 221.93 227.49 222.49
  L 227.48 246.74
  A 0.26 0.26 0.0 0 0 227.74 247.00
  L 230.77 246.98
  Q 231.02 246.98 231.02 246.73
  L 231.01 222.48
  Q 231.01 221.94 231.47 221.65
  Z
  M 234.14 249.81
  L 224.40 249.81
  A 0.44 0.44 0.0 0 0 223.96 250.25
  L 223.96 273.57
  A 6.08 5.20 90.0 0 0 229.16 279.65
  L 229.38 279.65
  A 6.08 5.20 -90.0 0 0 234.58 273.57
  L 234.58 250.25
  A 0.44 0.44 0.0 0 0 234.14 249.81
  Z"
/>
<circle fill="#010101" cx="286.90" cy="185.33" r="1.13"/>
<path fill="#ffffff" d="
  M 263.82 215.01
  A 0.66 0.66 0.0 0 1 263.16 214.35
  L 263.16 191.22
  A 6.03 5.25 90.0 0 1 268.41 185.19
  L 268.55 185.19
  A 6.03 5.25 90.0 0 1 273.80 191.22
  L 273.80 214.35
  A 0.66 0.66 0.0 0 1 273.14 215.01
  L 263.82 215.01
  Z"
/>
<path fill="#ffffff" d="
  M 231.01 222.48
  L 231.02 246.73
  Q 231.02 246.98 230.77 246.98
  L 227.74 247.00
  A 0.26 0.26 0.0 0 1 227.48 246.74
  L 227.49 222.49
  Q 227.49 221.93 227.00 221.65
  C 224.88 220.43 222.58 219.43 221.05 217.57
  C 214.50 209.58 214.21 196.25 221.74 188.77
  C 228.08 182.46 236.77 186.09 240.21 193.23
  C 244.37 201.85 243.26 213.18 235.48 219.43
  C 234.41 220.28 232.78 220.81 231.47 221.65
  Q 231.01 221.94 231.01 222.48
  Z"
/>
<circle fill="#010101" cx="210.89" cy="187.21" r="1.19"/>
<path fill="#ffffff" d="
  M 334.19 186.43
  A 0.42 0.42 0.0 0 1 334.76 186.61
  L 335.90 188.74
  A 2.12 2.01 61.8 0 1 335.13 191.56
  L 334.73 191.77
  A 2.12 2.01 61.8 0 1 331.96 190.86
  L 330.81 188.72
  A 0.42 0.42 0.0 0 1 330.98 188.15
  L 334.19 186.43
  Z"
/>
<rect fill="#ffffff" x="-6.91" y="-3.11" transform="translate(167.31,192.54) rotate(28.7)" width="13.82" height="6.22" rx="2.91"/>
<circle fill="#010101" cx="291.51" cy="189.07" r="1.15"/>
<circle fill="#010101" cx="206.56" cy="191.10" r="1.15"/>
<circle fill="#010101" cx="295.61" cy="193.17" r="1.20"/>
<circle fill="#010101" cx="202.53" cy="195.40" r="1.16"/>
<circle fill="#010101" cx="299.37" cy="197.67" r="1.12"/>
<ellipse fill="#010101" cx="0.00" cy="0.00" transform="translate(198.91,199.99) rotate(112.5)" rx="1.31" ry="1.12"/>
<circle fill="#010101" cx="302.80" cy="202.40" r="1.11"/>
<circle fill="#010101" cx="195.84" cy="204.97" r="1.14"/>
<path fill="#010101" d="
  M 305.57 208.65
  A 0.92 0.92 0.0 0 1 304.61 207.23
  L 304.94 206.74
  A 0.96 0.96 0.0 0 1 306.62 206.93
  Q 307.16 208.28 305.57 208.65
  Z"
/>
<path fill="#010101" d="
  M 333.01 220.67
  L 335.07 233.65
  A 0.58 0.58 0.0 0 1 334.59 234.32
  L 327.66 235.48
  A 0.58 0.58 0.0 0 1 327.00 235.00
  L 323.28 212.28
  A 0.58 0.58 0.0 0 1 323.76 211.62
  L 351.65 207.04
  A 0.58 0.58 0.0 0 1 352.31 207.52
  L 355.95 229.90
  A 0.58 0.58 0.0 0 1 355.47 230.56
  L 348.54 231.70
  A 0.58 0.58 0.0 0 1 347.88 231.22
  L 345.83 218.73
  A 0.58 0.58 0.0 0 0 345.19 218.25
  L 343.72 218.43
  A 0.58 0.58 0.0 0 0 343.22 219.10
  L 345.14 230.76
  A 0.58 0.58 0.0 0 1 344.66 231.42
  L 338.14 232.49
  A 0.58 0.58 0.0 0 1 337.48 232.01
  L 335.64 220.50
  A 0.58 0.58 0.0 0 0 335.07 220.01
  L 333.59 220.00
  A 0.58 0.58 0.0 0 0 333.01 220.67
  Z"
/>
<path fill="#010101" d="
  M 154.47 221.42
  L 156.13 210.69
  A 0.73 0.73 0.0 0 1 156.97 210.08
  L 164.02 211.23
  A 0.73 0.73 0.0 0 1 164.63 212.07
  L 162.95 222.78
  A 0.73 0.73 0.0 0 0 163.56 223.61
  L 171.04 224.77
  A 0.73 0.73 0.0 0 1 171.64 225.60
  L 170.25 234.34
  A 0.73 0.73 0.0 0 1 169.42 234.95
  L 141.83 230.63
  A 0.73 0.73 0.0 0 1 141.22 229.80
  L 144.63 208.05
  A 0.73 0.73 0.0 0 1 145.47 207.44
  L 152.58 208.61
  A 0.73 0.73 0.0 0 1 153.18 209.45
  L 151.36 221.05
  A 0.73 0.73 0.0 0 0 152.02 221.89
  L 153.69 222.03
  A 0.73 0.73 0.0 0 0 154.47 221.42
  Z"
/>
<circle fill="#010101" cx="193.23" cy="210.16" r="1.16"/>
<ellipse fill="#010101" cx="0.00" cy="0.00" transform="translate(308.07,212.87) rotate(37.9)" rx="1.22" ry="1.07"/>
<ellipse fill="#010101" cx="0.00" cy="0.00" transform="translate(191.05,215.62) rotate(-29.8)" rx="1.19" ry="1.08"/>
<path fill="#010101" d="
  M 309.29 219.26
  A 0.36 0.35 -7.9 0 1 308.99 219.04
  Q 308.80 218.54 308.97 217.93
  Q 309.08 217.55 309.35 217.35
  Q 310.34 216.63 311.25 218.08
  A 0.82 0.82 0.0 0 1 310.50 219.34
  L 309.29 219.26
  Z"
/>
<path fill="#ffffff" d="
  M 265.90 243.32
  A 1.08 1.06 84.0 0 0 266.74 242.27
  L 266.73 218.25
  A 0.27 0.26 -0.0 0 1 267.00 217.99
  L 270.02 218.01
  A 0.26 0.25 1.1 0 1 270.28 218.27
  L 270.26 242.26
  A 1.26 1.25 -87.5 0 0 271.40 243.51
  Q 280.03 244.26 280.09 252.99
  Q 280.16 265.55 280.03 278.41
  A 0.76 0.75 -85.1 0 1 279.16 279.15
  L 278.90 279.12
  A 1.28 1.27 4.5 0 1 277.82 277.86
  Q 277.82 270.85 277.70 265.53
  C 277.63 262.24 275.20 258.35 271.48 261.10
  Q 269.82 262.33 269.79 264.00
  Q 269.69 270.54 269.63 278.30
  A 0.86 0.85 -88.7 0 1 268.74 279.16
  L 268.47 279.16
  A 1.16 1.15 -89.0 0 1 267.36 278.00
  Q 267.35 271.48 267.24 265.61
  C 267.17 262.19 264.29 257.86 260.66 261.41
  C 258.32 263.71 259.20 274.73 259.15 278.42
  Q 259.14 279.28 258.28 279.18
  L 258.03 279.15
  A 1.22 1.22 0.0 0 1 256.95 277.95
  Q 256.84 265.19 256.93 253.13
  C 256.98 246.26 259.81 244.65 265.90 243.32
  Z"
/>
<ellipse fill="#010101" cx="0.00" cy="0.00" transform="translate(189.46,221.23) rotate(118.9)" rx="1.25" ry="1.03"/>
<path fill="#010101" d="
  M 311.33 222.77
  Q 312.64 222.94 312.27 224.49
  A 0.92 0.92 0.0 0 1 311.03 225.13
  Q 309.89 224.67 310.28 223.45
  A 0.97 0.97 0.0 0 1 311.33 222.77
  Z"
/>
<path fill="#010101" d="
  M 189.19 226.33
  Q 189.79 227.32 188.98 228.10
  A 1.14 1.14 0.0 0 1 187.24 226.64
  Q 187.62 226.07 188.15 225.92
  Q 188.83 225.72 189.19 226.33
  Z"
/>
<path fill="#010101" d="
  M 312.17 228.56
  Q 312.77 228.43 313.00 229.01
  Q 313.22 229.54 313.24 230.11
  Q 313.26 230.67 312.72 230.81
  Q 312.13 230.96 311.52 230.78
  A 0.81 0.80 -81.8 0 1 310.95 230.01
  Q 310.95 228.81 312.17 228.56
  Z"
/>
<ellipse fill="#010101" cx="0.00" cy="0.00" transform="translate(187.85,232.73) rotate(86.6)" rx="1.30" ry="1.11"/>
<circle fill="#010101" cx="312.37" cy="235.61" r="1.17"/>
<circle fill="#010101" cx="187.86" cy="238.71" r="1.14"/>
<ellipse fill="#010101" cx="0.00" cy="0.00" transform="translate(312.09,241.65) rotate(40.6)" rx="1.18" ry="1.07"/>
<ellipse fill="#010101" cx="0.00" cy="0.00" transform="translate(188.31,244.53) rotate(106.0)" rx="1.30" ry="1.08"/>
<circle fill="#010101" cx="311.29" cy="247.44" r="1.12"/>
<circle fill="#010101" cx="189.44" cy="250.16" r="1.14"/>
<path fill="#ffffff" d="
  M 234.14 249.81
  A 0.44 0.44 0.0 0 1 234.58 250.25
  L 234.58 273.57
  A 6.08 5.20 -90.0 0 1 229.38 279.65
  L 229.16 279.65
  A 6.08 5.20 -90.0 0 1 223.96 273.57
  L 223.96 250.25
  A 0.44 0.44 0.0 0 1 224.40 249.81
  L 234.14 249.81
  Z"
/>
<path fill="#010101" d="
  M 310.01 254.11
  Q 309.74 254.14 309.45 254.10
  Q 308.99 254.05 308.92 253.60
  Q 308.80 252.82 309.26 252.14
  A 0.87 0.87 0.0 0 1 310.73 252.21
  Q 311.04 252.77 311.00 253.42
  Q 310.97 253.88 310.53 254.01
  Q 310.27 254.08 310.01 254.11
  Z"
/>
<path fill="#010101" d="
  M 189.88 255.91
  A 0.75 0.74 62.4 0 1 190.15 255.03
  Q 190.65 254.68 191.59 254.58
  A 0.95 0.95 0.0 0 1 192.44 256.11
  Q 190.79 258.19 189.88 255.91
  Z"
/>
<ellipse fill="#010101" cx="0.00" cy="0.00" transform="translate(308.06,258.65) rotate(123.9)" rx="1.25" ry="1.01"/>
<circle fill="#010101" cx="193.18" cy="261.23" r="1.12"/>
<circle fill="#010101" cx="305.67" cy="264.00" r="1.16"/>
<circle fill="#010101" cx="195.82" cy="266.44" r="1.14"/>
<circle fill="#010101" cx="302.78" cy="269.03" r="1.20"/>
<ellipse fill="#010101" cx="0.00" cy="0.00" transform="translate(198.99,271.37) rotate(15.0)" rx="1.14" ry="1.07"/>
<path fill="#010101" d="
  M 298.58 272.83
  A 0.61 0.61 0.0 0 1 299.30 272.47
  Q 299.87 272.63 300.33 273.02
  Q 300.78 273.40 300.56 273.94
  Q 300.30 274.58 299.67 274.84
  Q 298.83 275.19 298.47 274.56
  Q 298.13 273.98 298.58 272.83
  Z"
/>
<ellipse fill="#010101" cx="0.00" cy="0.00" transform="translate(202.54,275.98) rotate(68.7)" rx="1.27" ry="1.05"/>
<circle fill="#010101" cx="295.66" cy="278.14" r="1.19"/>
<circle fill="#010101" cx="206.49" cy="280.21" r="1.15"/>
<circle fill="#010101" cx="291.45" cy="282.40" r="1.16"/>
<circle fill="#010101" cx="210.83" cy="284.13" r="1.16"/>
<circle fill="#010101" cx="286.87" cy="285.99" r="1.19"/>
<circle fill="#010101" cx="215.60" cy="287.65" r="1.11"/>
<ellipse fill="#010101" cx="0.00" cy="0.00" transform="translate(282.00,289.24) rotate(89.5)" rx="1.23" ry="1.11"/>
<path fill="#010101" d="
  M 219.66 291.31
  Q 219.04 290.84 219.57 290.28
  L 220.05 289.77
  A 1.03 1.03 0.0 0 1 221.73 290.93
  Q 221.03 292.34 219.66 291.31
  Z"
/>
<circle fill="#010101" cx="276.90" cy="292.00" r="1.15"/>
<path fill="#010101" d="
  M 226.71 292.33
  A 0.97 0.97 0.0 0 1 226.38 294.17
  L 225.55 294.25
  Q 224.82 294.32 224.81 293.58
  Q 224.77 291.39 226.71 292.33
  Z"
/>
<circle fill="#010101" cx="271.48" cy="294.23" r="1.18"/>
<ellipse fill="#010101" cx="0.00" cy="0.00" transform="translate(231.35,295.10) rotate(-38.2)" rx="1.21" ry="1.10"/>
<ellipse fill="#010101" cx="0.00" cy="0.00" transform="translate(265.95,296.05) rotate(124.7)" rx="1.18" ry="1.11"/>
<path fill="#010101" d="
  M 236.93 295.68
  Q 237.13 295.65 237.34 295.61
  A 0.84 0.84 0.0 0 1 238.28 296.69
  Q 237.72 298.40 236.39 297.53
  Q 235.25 296.79 236.28 295.96
  Q 236.57 295.73 236.93 295.68
  Z"
/>
<circle fill="#010101" cx="260.18" cy="297.15" r="1.19"/>
<circle fill="#010101" cx="242.77" cy="297.67" r="1.15"/>
<circle fill="#010101" cx="254.38" cy="297.90" r="1.15"/>
<circle fill="#010101" cx="248.53" cy="298.07" r="1.13"/>
</svg>
